<svg width="54" height="55" xmlns="http://www.w3.org/2000/svg"><g fill="none"><path d="M15.64 22.077s-1.78 32.46.36 32.46h25.4a4.77 4.77 0 004.79-4.77 4.72 4.72 0 00-1-2.86 4.78 4.78 0 004.81-4.78 4.73 4.73 0 00-1.19-3.2 4.77 4.77 0 001.91-7.64 4.77 4.77 0 00-1.72-9.21H37.6c2-9.58 1-21-6.69-21s-3.69 9.14-6.68 14.85a11.61 11.61 0 01-8.59 6.18v-.03zm19.66 1.91h13.77a2.87 2.87 0 010 5.73h-6.7v1.91h4.79a2.87 2.87 0 010 5.73h-6.7v1.91h4.79a2.87 2.87 0 010 5.73h-6.7v1.93h2.86a2.86 2.86 0 110 5.72H15.64v-28.66a10.06 10.06 0 005.36-1.91 13.48 13.48 0 004.89-5.15c3-5.68-.46-13.94 5-13.94 5.66 0 6.59 9.27 4.78 19.09l-.39 1.91h.02z" fill="#004C45"/><path d="M16 22.097H4.5a3.81 3.81 0 00-3.82 3.83v24.81a3.81 3.81 0 003.82 3.82H16v-32.46zm-1.95 30.55H4.48a1.91 1.91 0 01-1.89-1.92v-24.8a1.91 1.91 0 011.89-1.92h9.57v28.64z" fill="#00BFB2"/><path d="M8.32 48.827a1.91 1.91 0 10-1.91-1.9 1.91 1.91 0 001.91 1.91v-.01z" fill="#00BFB2"/></g></svg>