<?xml version="1.0" encoding="UTF-8"?>
<svg width="69px" height="62px" viewBox="0 0 69 62" version="1.1" xmlns="http://www.w3.org/2000/svg" xmlns:xlink="http://www.w3.org/1999/xlink">
    <title>712B721B-EE71-47D6-B5AD-B0CAAC63F6C0</title>
    <g id="Symbols" stroke="none" stroke-width="1" fill="none" fill-rule="evenodd">
        <g id="icon/age" fill-rule="nonzero">
            <g id="age" transform="translate(4.000000, 1.000000)">
                <path d="M59.3,8.66 L48.05,8.66 L48.05,1.16 C48.05,0.824170319 47.8708371,0.513850879 47.58,0.345936027 C47.289163,0.178021175 46.930837,0.178021175 46.64,0.345936027 C46.3491629,0.513850879 46.17,0.824170319 46.17,1.16 L46.17,8.66 L14.3,8.66 L14.3,1.16 C14.3,0.640852335 13.8791477,0.219999888 13.36,0.219999888 C12.8408523,0.219999888 12.42,0.640852335 12.42,1.16 L12.42,8.66 L1.17,8.66 C0.654761793,8.66548157 0.24,9.08473264 0.24,9.6 L0.24,59.29 C0.24,59.5366513 0.337981862,59.7732005 0.512390693,59.9476093 C0.686799525,60.1220181 0.923348664,60.2199999 1.17,60.2199999 L59.3,60.2199999 C59.8152674,60.2199999 60.2345184,59.8052382 60.24,59.29 L60.24,9.6 C60.24,9.08085234 59.8191477,8.66 59.3,8.66 Z M58.36,58.35 L2.11,58.35 L2.11,10.54 L12.42,10.54 L12.42,19 C12.42,19.5191477 12.8408523,19.94 13.36,19.94 C13.8791477,19.94 14.3,19.5191477 14.3,19 L14.3,10.54 L46.17,10.54 L46.17,19 C46.1700001,19.5191476 46.5908524,19.9399999 47.11,19.9399999 C47.6291476,19.9399999 48.0499999,19.5191476 48.05,19 L48.05,10.54 L58.36,10.54 L58.36,58.35 Z" id="Shape" fill="#004C45"></path>
                <path d="M42,41.94 L42,50.85 C42,51.3691477 41.5791477,51.79 41.06,51.79 L19.46,51.79 C18.9408523,51.79 18.52,51.3691477 18.52,50.85 L18.52,41.94 C18.52,40.6970523 19.0144397,39.505158 19.8942739,38.6271997 C20.7741082,37.7492414 21.9670551,37.2573441 23.21,37.26 L26.49,37.26 L26.49,32.57 C26.4899708,32.0547326 26.9047618,31.6354816 27.42,31.63 L29.3,31.63 L29.3,30.56 C27.8625539,30.1424824 26.8727758,28.8268515 26.87,27.33 C26.87,24.24 29.35,20.49 29.46,20.33 C29.5268852,20.2288966 29.6115963,20.1407971 29.71,20.07 C30.1410762,19.7843041 30.7219665,19.9004821 31.01,20.33 C31.12,20.49 33.6,24.24 33.6,27.33 C33.5972242,28.8268515 32.6074461,30.1424824 31.17,30.56 L31.17,31.63 L33.05,31.63 C33.5691477,31.63 33.99,32.0508523 33.99,32.57 L33.99,37.26 L37.27,37.26 C38.5198537,37.2466461 39.7231154,37.7338146 40.6116295,38.6129364 C41.5001437,39.4920582 42,40.690075 42,41.94 Z M40.12,49.94 L40.12,45.37 L39.74,45.59 C38.3501102,46.4794211 36.5698898,46.4794211 35.18,45.59 C34.3862613,45.0507406 33.3437387,45.0507406 32.55,45.59 C31.1610477,46.4702275 29.3889523,46.4702275 28,45.59 C27.2031489,45.0489972 26.1568511,45.0489972 25.36,45.59 C23.9710477,46.4702275 22.1989523,46.4702275 20.81,45.59 L20.43,45.37 L20.43,49.91 L40.12,49.94 Z M40.12,43.45 L40.12,41.94 C40.12,40.3880799 38.8619201,39.1299822 37.31,39.1299822 L23.21,39.1299822 C22.4630105,39.1273417 21.7457043,39.4222204 21.2165623,39.949486 C20.6874203,40.4767517 20.39,41.1930058 20.39,41.94 L20.39,43.41 C20.867772,43.5215994 21.3216346,43.7180474 21.73,43.99 C22.5237387,44.5292594 23.5662613,44.5292594 24.36,43.99 C25.7460548,43.0998436 27.5239452,43.0998436 28.91,43.99 C29.7068511,44.5310028 30.7531489,44.5310028 31.55,43.99 C32.9398898,43.1005789 34.7201102,43.1005789 36.11,43.99 C36.9037387,44.5292594 37.9462613,44.5292594 38.74,43.99 C39.1531688,43.7292925 39.6056288,43.5368282 40.08,43.42 L40.12,43.45 Z M32.12,37.29 L32.12,33.51 L28.36,33.51 L28.36,37.26 L32.12,37.29 Z M31.12,28.55 C31.5011593,28.2730424 31.7276755,27.8311502 31.73,27.36 C31.5737381,25.7271297 31.065401,24.1475318 30.24,22.73 C29.4040747,24.1428185 28.8949639,25.7248203 28.7499912,27.36 C28.7483739,27.8297493 28.9713505,28.2719862 29.35,28.55 C29.4838053,28.1762304 29.8380018,27.9268201 30.235,27.9268201 C30.6319982,27.9268201 30.9861947,28.1762304 31.12,28.55 L31.12,28.55 Z" id="Shape" fill="#004C45"></path>
                <path d="M40.08,45.37 L40.08,49.91 L20.39,49.91 L20.39,45.37 L20.77,45.59 C22.1589523,46.4702275 23.9310477,46.4702275 25.32,45.59 C26.1168511,45.0489972 27.1631489,45.0489972 27.96,45.59 C29.3489523,46.4702275 31.1210477,46.4702275 32.51,45.59 C33.3037387,45.0507406 34.3462613,45.0507406 35.14,45.59 C36.5298898,46.4794211 38.3101102,46.4794211 39.7,45.59 L40.08,45.37 Z" id="Path" fill="#00BFB2"></path>
            </g>
        </g>
    </g>
</svg>