<?xml version="1.0" encoding="UTF-8"?>
<svg width="69px" height="62px" viewBox="0 0 69 62" version="1.1" xmlns="http://www.w3.org/2000/svg" xmlns:xlink="http://www.w3.org/1999/xlink">
    <title>6CF2F986-987C-4E86-BC71-0A18000E057A</title>
    <g id="Symbols" stroke="none" stroke-width="1" fill="none" fill-rule="evenodd">
        <g id="icon/phase" fill-rule="nonzero">
            <g id="phases" transform="translate(7.000000, 7.000000)">
                <circle id="Oval" fill="#00BFB2" cx="48" cy="41" r="6"></circle>
                <path d="M30.07,18.29 L25.37,23 L13.28,23 C8.03329488,23 3.78,27.2532949 3.78,32.5 C3.78,37.7467051 8.03329488,42 13.28,42 L18.86,42 C19.3813797,45.4189722 22.3215021,47.9447275 25.78,47.9447275 C29.2384979,47.9447275 32.1786203,45.4189722 32.7,42 L40.86,42 C41.3844977,45.6338264 44.6274331,48.2449516 48.2894903,47.9820277 C51.9515475,47.7191039 54.7882032,44.6714836 54.7882032,41 C54.7882032,37.3285164 51.9515475,34.2808961 48.2894903,34.0179723 C44.6274331,33.7550484 41.3844977,36.3661736 40.86,40 L32.7,40 C32.1786203,36.5810278 29.2384979,34.0552725 25.78,34.0552725 C22.3215021,34.0552725 19.3813797,36.5810278 18.86,40 L13.28,40 C9.13786438,40 5.78,36.6421356 5.78,32.5 C5.78,28.3578644 9.13786438,25 13.28,25 L25.37,25 L30.07,29.71 L31.49,28.29 L28.19,25 L42.28,25 C47.5267051,25 51.78,20.7467051 51.78,15.5 C51.78,10.2532949 47.5267051,6 42.28,6 L36.7,6 C36.1786203,2.58102781 33.2384979,0.0552724767 29.78,0.0552724767 C26.3215021,0.0552724767 23.3813797,2.58102781 22.86,6 L14.7,6 C14.1755023,2.36617362 10.9325669,-0.244951614 7.27050973,0.017972264 C3.60845253,0.280896142 0.77179677,3.32851638 0.77179677,7 C0.77179677,10.6714836 3.60845253,13.7191039 7.27050973,13.9820277 C10.9325669,14.2449516 14.1755023,11.6338264 14.7,8 L22.86,8 C23.3813797,11.4189722 26.3215021,13.9447275 29.78,13.9447275 C33.2384979,13.9447275 36.1786203,11.4189722 36.7,8 L42.28,8 C46.4221356,8.00000009 49.7799998,11.3578644 49.7799998,15.5 C49.7799998,19.6421356 46.4221356,22.9999999 42.28,23 L28.19,23 L31.49,19.71 L30.07,18.29 Z M47.78,36 C50.5414237,36 52.78,38.2385763 52.78,41 C52.78,43.7614237 50.5414237,46 47.78,46 C45.0185763,46 42.78,43.7614237 42.78,41 C42.78,38.2385763 45.0185763,36 47.78,36 Z M25.78,36 C28.5414237,36 30.78,38.2385763 30.78,41 C30.78,43.7614237 28.5414237,46 25.78,46 C23.0185763,46 20.78,43.7614237 20.78,41 C20.78,38.2385763 23.0185763,36 25.78,36 Z M7.78,12 C5.01857625,12 2.78,9.76142375 2.78,7 C2.78,4.23857625 5.01857625,2 7.78,2 C10.5414237,2 12.78,4.23857625 12.78,7 C12.78,9.76142375 10.5414237,12 7.78,12 L7.78,12 Z M29.78,12 C27.0185763,12 24.78,9.76142375 24.78,7 C24.78,4.23857625 27.0185763,2 29.78,2 C32.5414237,2 34.78,4.23857625 34.78,7 C34.78,8.32608245 34.2532158,9.59785201 33.3155339,10.5355339 C32.377852,11.4732158 31.1060824,12 29.78,12 L29.78,12 Z" id="Shape" fill="#004C45"></path>
            </g>
        </g>
    </g>
</svg>