<?xml version="1.0" encoding="UTF-8"?>
<svg width="24px" height="24px" viewBox="0 0 24 24" version="1.1" xmlns="http://www.w3.org/2000/svg" xmlns:xlink="http://www.w3.org/1999/xlink">
    <title>F0969E4B-1C43-494F-A61D-34A50D322632</title>
    <g id="Symbols" stroke="none" stroke-width="1" fill="none" fill-rule="evenodd">
        <g id="icon/green_magglass" stroke="#658D1B" stroke-width="3">
            <g id="Group-11-Copy" transform="translate(12.500000, 12.000000) rotate(-90.000000) translate(-12.500000, -12.000000) translate(2.500000, 1.500000)">
                <path d="M2.58916511,19.529838 L8.64262305,13.4763178 C8.67925857,13.4397445 8.61059813,13.3979377 8.64262305,13.3586231 C11.4573271,15.2050405 15.3694143,14.892081 17.8435576,12.4179377 C20.6771402,9.58429283 20.6771402,4.99002492 17.8435576,2.15638006 C15.0099128,-0.677264798 10.4157072,-0.677264798 7.58206231,2.15638006 C5.107919,4.63052336 4.7948972,8.44647352 6.64131464,11.2611776 C6.602,11.2932025 7.44068825,12.5574894 7.40405273,12.5941249 L1.56323242,18.667245 C1.25866699,18.9959803 0.761488938,19.5351792 1.05419922,19.8278895 C1.63905903,20.4132478 2.00424299,20.1151963 2.58916511,19.529838 Z" id="Stroke-1"></path>
                <line x1="6.94140625" y1="11.7984706" x2="8.64262305" y2="13.4763178" id="Stroke-3" stroke-linecap="round" stroke-linejoin="round"></line>
            </g>
        </g>
    </g>
</svg>