<svg width="69" height="62" xmlns="http://www.w3.org/2000/svg"><g fill="none" fill-rule="evenodd"><path d="M63.85 9.5H52.6V2a.94.94 0 00-1.87 0v7.5H18.85V2a.94.94 0 00-1.87 0v7.5H5.73a.94.94 0 00-.94.94v49.68c0 .52.42.94.94.94h58.12c.52 0 .94-.42.94-.94V10.43a.94.94 0 00-.94-.93zm-.94 49.69H6.66V11.37H17v5.44a.94.94 0 001.87 0v-5.44h31.86v5.44a.94.94 0 001.87 0v-5.44h10.31v47.82z" fill="#004C45" fill-rule="nonzero"/><path stroke="#004C45" stroke-width="1.5" stroke-linejoin="round" d="M14 23.5h8v8h-8z"/><path stroke="#004C45" stroke-width="1.5" fill="#00BFB2" fill-rule="nonzero" stroke-linejoin="round" d="M25.33 23.5h8v8h-8z"/><path stroke="#004C45" stroke-width="1.5" stroke-linejoin="round" d="M36.67 23.5h8v8h-8zm11.33 0h8v8h-8zm-34 11h8v8h-8zm11.33 0h8v8h-8zm11.34 0h8v8h-8zm11.33 0h8v8h-8zm-34 11h8v8h-8zm11.33 0h8v8h-8z"/><path stroke="#004C45" stroke-width="1.5" fill="#00BFB2" fill-rule="nonzero" stroke-linejoin="round" d="M36.67 45.5h8v8h-8z"/></g></svg>