<svg width="45" height="47" viewBox="0 0 69 62" xmlns="http://www.w3.org/2000/svg"><g transform="translate(7 7)" fill="none"><circle fill="#00BFB2" cx="48" cy="41" r="6"/><path d="M30.07 18.29L25.37 23H13.28a9.5 9.5 0 000 19h5.58a7 7 0 0013.84 0h8.16a7 7 0 100-2H32.7a7 7 0 00-13.84 0h-5.58a7.5 7.5 0 010-15h12.09l4.7 4.71 1.42-1.42-3.3-3.29h14.09a9.5 9.5 0 000-19H36.7a7 7 0 00-13.84 0H14.7a7 7 0 100 2h8.16A7 7 0 0036.7 8h5.58a7.5 7.5 0 010 15H28.19l3.3-3.29-1.42-1.42zM47.78 36a5 5 0 110 10 5 5 0 010-10zm-22 0a5 5 0 110 10 5 5 0 010-10zm-18-24a5 5 0 110-10 5 5 0 010 10zm22 0a5 5 0 110-10 5 5 0 010 10z" fill="#004C45"/></g></svg>