<svg width="27" height="27" viewBox="0 0 54 54" xmlns="http://www.w3.org/2000/svg"><g fill="none"><path d="M15.64 21.15s-1.78 32.46.36 32.46h25.4a4.77 4.77 0 004.79-4.77 4.72 4.72 0 00-1-2.86A4.78 4.78 0 0050 41.2a4.73 4.73 0 00-1.19-3.2 4.77 4.77 0 001.91-7.64A4.77 4.77 0 0049 21.15H37.6c2-9.58 1-21-6.69-21S27.22 9.29 24.23 15a11.61 11.61 0 01-8.59 6.18v-.03zm19.66 1.91h13.77a2.87 2.87 0 010 5.73h-6.7v1.91h4.79a2.87 2.87 0 010 5.73h-6.7v1.91h4.79a2.87 2.87 0 010 5.73h-6.7V46h2.86a2.86 2.86 0 110 5.72H15.64V23.06A10.06 10.06 0 0021 21.15 13.48 13.48 0 0025.89 16c3-5.68-.46-13.94 5-13.94 5.66 0 6.59 9.27 4.78 19.09l-.39 1.91h.02z" fill="#004C45"/><path d="M16 21.17H4.5A3.81 3.81 0 00.68 25v24.81a3.81 3.81 0 003.82 3.82H16V21.17zm-1.95 30.55H4.48a1.91 1.91 0 01-1.89-1.92V25a1.91 1.91 0 011.89-1.92h9.57v28.64z" fill="#00BFB2"/><path d="M8.32 47.9A1.91 1.91 0 106.41 46a1.91 1.91 0 001.91 1.91v-.01z" fill="#00BFB2"/></g></svg>