<svg width="122" height="37" viewBox="0 0 119 37" xmlns="http://www.w3.org/2000/svg"><g fill="none"><path fill="#ED8B22" d="M47.131.489l-3.784 2.428.955 1.508 3.94-2.05z"/><path d="M7.07 8.695h6.79v2.72l-.887.125v4.445c-1.65.645-3.406.97-5.177.96-5.124 0-7.72-2.66-7.72-7.476 0-4.073 3.03-7.696 7.953-7.696 2.408 0 3.776.24 4.927.638v4.55H9.582L9.397 5.55a2.877 2.877 0 00-1.16-.14c-1.937 0-3.743 1.171-3.743 3.86 0 2.222.778 4.012 3.724 4.012.233.012.467.001.698-.032v-1.63l-1.846-.256V8.695zm15.432 1.063c0-1.3-.706-1.705-1.4-1.705a3.64 3.64 0 00-1.645.297l-.14 1.147H17.19V6.211c1.071-.49 2.223-.754 4.173-.754 2.937 0 4.522.99 4.522 4.177 0 1.805-.06 2.985-.1 4.538l1.777.176v2.28l-2.03.156h-2.697v-.762a1.99 1.99 0 01.089-.903s-1.016 1.825-2.81 1.825c-2.459 0-3.663-1.456-3.663-3.186a3.178 3.178 0 012.203-3.021 8.607 8.607 0 013.844-.706l.004-.273zm-.521 2.28c-1.97 0-2.588.4-2.588 1.203 0 .534.377 1.087 1.328 1.087.95 0 1.93-.622 1.93-2.279l-.67-.012zM32.377 3l-1.906-.3V1.007L32.55.754h2.64V14.64l1.782.249v1.806h-6.5v-1.814l1.905-.233zm21.704 3.03l2.03-.244h2.07c0 .774-.168 2.223-.168 2.223a3.667 3.667 0 013.612-2.476c2.315 0 4.012 1.93 4.012 5.184 0 3.611-1.974 6.227-5.292 6.227a5.97 5.97 0 01-2.163-.357l-.04 5.445h-2.267l.084-14.357-1.89-.168.012-1.477zm4.197 8.607c.58.332 1.243.488 1.91.45 1.95 0 3.05-1.886 3.05-4.013 0-2.034-.695-3.463-2.284-3.463-1.588 0-2.656 1.449-2.656 3.989l-.02 3.037zm12.214-6.572L70.16 6.46a9.04 9.04 0 013.567-.803c2.81 0 4.37.98 4.37 3.856 0 .94-.04 3.724-.04 5.678l1.87.172v1.164l-1.858.153h-1.79v-.442c0-.63.036-1.605.036-1.605a3.772 3.772 0 01-3.498 2.303c-1.236 0-3.411-.457-3.299-3.097.097-2.336 2.91-3.455 6.537-3.455V9.75c0-2.038-.83-2.564-2.528-2.564-.831.02-1.65.205-2.408.546-.45.22-.626.333-.626.333m5.562 3.74c-2.296 0-4.607.44-4.607 1.89 0 1.123.735 1.668 1.734 1.668s2.873-.545 2.873-3.559M94.15 7.19h-.963c-.293 0-1.155-.084-1.448-.104a3.375 3.375 0 011.027 2.6c0 2.407-2.034 3.86-4.574 3.86-.442 0-1.95.253-1.95 1.031 0 .546.505.69 1.865.899l2.897.485c1.678.27 2.918.88 2.918 2.62 0 2.5-2.605 3.632-5.31 3.632-2.6 0-5.16-.839-5.16-2.957 0-1.637 1.32-2.352 2.73-2.669v-.04c-.863-.188-1.658-.67-1.658-1.677 0-1.112 1.088-1.408 1.97-1.637v-.044c-.734-.165-2.728-.9-2.728-3.648 0-2.247 1.846-3.924 4.49-3.924a8.35 8.35 0 011.866.253h4.012l.016 1.32zm-6.677 9.754c-.212 0-2.371.61-2.371 2.039 0 1.677 2.536 1.906 3.611 1.906 1.344 0 3.503-.401 3.503-2.139 0-.967-.883-1.24-1.846-1.384l-2.897-.422zm-2.058-7.383a2.725 2.725 0 002.809 2.665c1.85 0 3.021-1.204 3.021-2.729 0-1.047-.802-2.56-2.873-2.56-1.701 0-2.937 1.027-2.937 2.624m17.198-3.8c3.21 0 5.108 2.207 5.108 5.217 0 3.354-1.898 5.806-5.108 5.806s-5.128-2.19-5.128-5.216c0-3.355 1.902-5.807 5.112-5.807m.02 10.032c2.407 0 3.611-1.974 3.611-4.414 0-2.44-1.204-4.414-3.611-4.414-2.408 0-3.612 1.974-3.612 4.414 0 2.44 1.204 4.414 3.612 4.414m9.313-.602a5.71 5.71 0 002.809.802c1.978 0 2.849-.987 2.849-2.086 0-1.252-.895-1.862-2.66-2.408-2.047-.63-3.058-1.637-3.058-2.913 0-1.524 1.272-2.981 3.72-2.981.78.01 1.552.169 2.274.465v1.148a4.442 4.442 0 00-2.491-.694c-1.553 0-2.38.895-2.38 1.926 0 1.204.963 1.681 2.636 2.219 2.075.67 3.086 1.525 3.086 3.138 0 1.75-1.509 3.093-4.073 3.093a6.65 6.65 0 01-2.744-.582v-1.143m-65.34-5.469c0-1.657-.695-1.854-2.079-1.854a7.126 7.126 0 00-1.826.317l-1.372.425-.253-2.195c.265-.192 1.958-.774 3.908-.774 2.938 0 4.462.87 4.462 4.06 0 1.806-.06 3.315-.104 4.868l1.962.2v1.786l-1.922.153h-2.488v-.67a4.763 4.763 0 01.105-1.104c-.598 1.453-2.215 2.006-3.21 2.006-2.476 0-3.447-1.464-3.447-3.186 0-1.577 1.525-2.704 2.371-2.993a9.229 9.229 0 013.905-.706l-.012-.333zm-.675 2.239c-2.054 0-2.889.802-2.889 1.513a1.256 1.256 0 001.389 1.292c1.01 0 2.207-.835 2.207-2.81l-.707.005z" fill="#034D47"/><path d="M27.008 25.624A3.651 3.651 0 0024.1 26.85c-.711.803-1.066 1.922-1.063 3.359.003 1.436.345 2.565 1.027 3.386a3.647 3.647 0 002.93 1.204 9.98 9.98 0 002.668-.421v1.14a8.242 8.242 0 01-2.865.437c-1.648 0-2.919-.5-3.812-1.5-.894-1.001-1.34-2.42-1.34-4.254a6.721 6.721 0 01.646-3.026 4.598 4.598 0 011.865-2.006 5.618 5.618 0 012.87-.706 6.946 6.946 0 013.069.654l-.55 1.115a5.914 5.914 0 00-2.536-.61zm6.012 10.171h-1.27v-11.88h1.268zm2.423-10.645a.835.835 0 01.216-.638.782.782 0 011.06 0c.162.17.243.4.224.634a.839.839 0 01-.224.638.734.734 0 01-.526.209.726.726 0 01-.534-.209.85.85 0 01-.216-.634zm1.376 10.645h-1.268v-8.378h1.268v8.378zm8.266 0v-5.42a2.199 2.199 0 00-.466-1.53 1.918 1.918 0 00-1.46-.5c-.878 0-1.52.236-1.926.71-.401.473-.61 1.255-.61 2.347v4.413H39.35v-8.398h1.031l.209 1.148h.06a2.608 2.608 0 011.08-.96 3.555 3.555 0 011.564-.34c.825-.062 1.64.2 2.275.73.509.484.764 1.263.767 2.335v5.465h-1.252zm3.607-10.645a.835.835 0 01.217-.638.803.803 0 011.063 0 .839.839 0 01.22.634.855.855 0 01-.22.638.742.742 0 01-.53.209.726.726 0 01-.533-.209.85.85 0 01-.217-.634zm1.376 10.645h-1.267v-8.378h1.267v8.378zm5.882.157a3.575 3.575 0 01-2.808-1.12c-.666-.746-1-1.803-1-3.17 0-1.4.342-2.483 1.016-3.246a3.651 3.651 0 012.885-1.147 5.6 5.6 0 011.204.132c.329.06.648.163.95.305l-.4 1.075a5.694 5.694 0 00-.915-.276 3.988 3.988 0 00-.879-.113c-1.701 0-2.552 1.086-2.552 3.258a3.888 3.888 0 00.622 2.368 2.17 2.17 0 001.846.802 5.618 5.618 0 002.146-.45v1.124a4.59 4.59 0 01-2.114.458zm9.097-.157l-.253-1.203h-.06a3.49 3.49 0 01-1.252 1.067c-.492.2-1.02.297-1.552.28a2.809 2.809 0 01-1.955-.641 2.351 2.351 0 01-.706-1.826c0-1.693 1.352-2.58 4.057-2.66l1.42-.048v-.51a2.135 2.135 0 00-.421-1.457 1.75 1.75 0 00-1.356-.469 5.521 5.521 0 00-2.372.642l-.4-.971c.428-.23.884-.406 1.355-.526a5.877 5.877 0 011.481-.192c1 0 1.74.222 2.219.666.479.444.72 1.154.722 2.13v5.718h-.927zm-2.853-.894a2.568 2.568 0 001.858-.65 2.408 2.408 0 00.678-1.818v-.759l-1.268.053a4.57 4.57 0 00-2.183.473c-.445.274-.702.77-.67 1.292-.03.392.117.777.402 1.047.336.263.758.392 1.183.362zm7.516.894h-1.268v-11.88h1.268zm11.235 0h-3.021v-8.703h-2.725V24.62h8.466v2.472h-2.72zm9.209-8.811c.248-.001.497.019.742.06l.169.032-.27 2.809a4.47 4.47 0 00-1.014-.088 1.946 1.946 0 00-1.42.445c-.32.353-.48.821-.446 1.296v4.257h-2.986v-8.67h2.223l.466 1.384h.144a2.985 2.985 0 011.044-1.112 2.48 2.48 0 011.348-.413zm1.902-2.002c-.03-.373.107-.74.373-1.004.35-.246.777-.361 1.204-.325.427-.032.853.086 1.203.333.268.26.407.624.382.996 0 .874-.534 1.316-1.605 1.316-1.072 0-1.557-.442-1.557-1.316zm3.061 10.833h-2.985v-8.69h2.985v8.69zm7.576-.02l-.57-1.147h-.064a3.419 3.419 0 01-1.228 1.023c-.51.2-1.057.294-1.605.277a2.544 2.544 0 01-1.926-.734 2.857 2.857 0 01-.718-2.07 2.355 2.355 0 01.963-2.063 5.285 5.285 0 012.789-.759l1.444-.048v-.12a.939.939 0 00-1.063-1.064 6.376 6.376 0 00-2.408.642l-.862-1.97a8.33 8.33 0 013.82-.778c.93-.066 1.85.22 2.58.802.63.599.964 1.444.914 2.312v5.677l-2.066.02zm-2.215-1.958c.343.006.675-.117.93-.345a1.13 1.13 0 00.402-.89v-.663l-.69.032c-.983.032-1.473.402-1.473 1.084-.016.517.265.782.831.782zm9.152 1.958h-2.989v-11.88h2.99zm8.6-2.652a2.46 2.46 0 01-.947 2.099c-.634.476-1.541.714-2.721.714-.56.005-1.119-.03-1.673-.104a7.255 7.255 0 01-1.453-.378v-2.407a9.18 9.18 0 001.525.501 6.42 6.42 0 001.477.201c.65 0 .97-.148.97-.445a.502.502 0 00-.268-.402 13.41 13.41 0 00-1.581-.698 3.908 3.908 0 01-1.665-1.111 2.54 2.54 0 01-.474-1.577 2.19 2.19 0 01.935-1.882 4.458 4.458 0 012.636-.67c.54-.004 1.08.058 1.605.184.536.14 1.06.323 1.565.55l-.802 1.926a8.828 8.828 0 00-1.26-.457 4.217 4.217 0 00-1.088-.185c-.49 0-.73.116-.73.357a.445.445 0 00.253.377c.481.241.975.454 1.48.638a5.96 5.96 0 011.357.735c.285.224.511.515.658.846.146.379.214.783.2 1.188z" fill="#01BAB4"/></g></svg>