<?xml version="1.0" encoding="UTF-8"?>
<svg width="75px" height="61px" viewBox="0 0 75 61" version="1.1" xmlns="http://www.w3.org/2000/svg" xmlns:xlink="http://www.w3.org/1999/xlink">
    <title>82547746-89BA-460F-B332-9FDC16BCAA8F</title>
    <g id="Design" stroke="none" stroke-width="1" fill="none" fill-rule="evenodd">
        <g id="Landing-page_DT" transform="translate(-523.000000, -2963.000000)">
            <g id="Bottom-block" transform="translate(375.000000, 2919.000000)">
                <g id="GLPG-icon-1" transform="translate(149.000000, 45.000000)">
                    <polygon id="Path" stroke="#004C45" fill="#FFFFFF" fill-rule="nonzero" points="7.73 8.81 0.72 15.81 7.73 22.82 32.24 22.82 32.24 8.81"></polygon>
                    <polyline id="Path" stroke="#004C45" stroke-width="2" points="44.23 15.81 64.92 15.81 71.92 22.82 64.92 29.82 38.08 29.82 38.08 15.81 43.91 15.81"></polyline>
                    <path d="M37.49,0.64 C34.5905051,0.64 32.24,2.99050506 32.24,5.89 L32.24,59 L42.74,59 L42.74,5.89 C42.74,2.99050506 40.3894949,0.64 37.49,0.64 L37.49,0.64 Z" id="Path" stroke="#004C45" fill="#FFFFFF" fill-rule="nonzero"></path>
                    <path d="M32.24,22.07 L32.24,5.89 C32.24,2.99050506 34.5905051,0.64 37.49,0.64 L37.49,0.64 C40.3894949,0.64 42.74,2.99050506 42.74,5.89 L42.74,59 L32.24,59 L32.24,22.82" id="Path" stroke="#004C45" stroke-width="2"></path>
                    <line x1="21.73" y1="59" x2="53.25" y2="59" id="Path" stroke="#004C45" stroke-width="2"></line>
                    <line x1="32.24" y1="8.81" x2="24.07" y2="8.81" id="Path" stroke="#004C45" stroke-width="2"></line>
                    <polyline id="Path" stroke="#004C45" stroke-width="2" points="25.56 8.81 7.73 8.81 0.72 15.81 7.73 22.82 32.56 22.82"></polyline>
                    <polygon id="Path" fill="#00BFB2" fill-rule="nonzero" points="15.9 29.82 8.9 36.82 15.9 43.83 36.91 43.83 36.91 29.82"></polygon>
                    <polyline id="Path" stroke="#004C45" stroke-width="2" points="27.57 43.83 36.91 43.83 36.91 29.82 15.9 29.82 8.9 36.82 15.9 43.83 27.89 43.83"></polyline>
                </g>
            </g>
        </g>
    </g>
</svg>