<?xml version="1.0" encoding="UTF-8"?>
<svg width="44px" height="44px" viewBox="0 0 69 62" version="1.1" xmlns="http://www.w3.org/2000/svg" xmlns:xlink="http://www.w3.org/1999/xlink">
    <title>B2D44927-F355-4832-BCCB-34C5352839AA</title>
    <g id="Symbols" stroke="none" stroke-width="1" fill="none" fill-rule="evenodd">
        <g id="study-dates" transform="translate(4.000000, 0.500000)">
            <path d="M59.85,9 L48.6,9 L48.6,1.5 C48.5503866,1.02090164 48.1466604,0.656824584 47.665,0.656824584 C47.1833396,0.656824584 46.7796134,1.02090164 46.73,1.5 L46.73,9 L14.85,9 L14.85,1.5 C14.8003866,1.02090164 14.3966604,0.656824584 13.915,0.656824584 C13.4333396,0.656824584 13.0296134,1.02090164 12.98,1.5 L12.98,9 L1.73,9 C1.21085234,9 0.79,9.42085234 0.79,9.94 L0.79,59.62 C0.79,60.1391477 1.21085234,60.56 1.73,60.56 L59.85,60.56 C60.3691477,60.56 60.79,60.1391477 60.79,59.62 L60.79,9.93 C60.7845184,9.41476179 60.3652674,8.99997084 59.85,9 Z M58.91,58.69 L2.66,58.69 L2.66,10.87 L13,10.87 L13,16.31 C13.0496134,16.7890984 13.4533396,17.1531754 13.935,17.1531754 C14.4166604,17.1531754 14.8203866,16.7890984 14.87,16.31 L14.87,10.87 L46.73,10.87 L46.73,16.31 C46.7796134,16.7890984 47.1833396,17.1531754 47.665,17.1531754 C48.1466604,17.1531754 48.5503866,16.7890984 48.6,16.31 L48.6,10.87 L58.91,10.87 L58.91,58.69 Z" id="Shape" fill="#004C45" fill-rule="nonzero"></path>
            <rect id="Rectangle" stroke="#004C45" stroke-width="1.5" stroke-linejoin="round" x="10" y="23" width="8" height="8"></rect>
            <rect id="Rectangle" stroke="#004C45" stroke-width="1.5" fill="#00BFB2" fill-rule="nonzero" stroke-linejoin="round" x="21.33" y="23" width="8" height="8"></rect>
            <rect id="Rectangle" stroke="#004C45" stroke-width="1.5" stroke-linejoin="round" x="32.67" y="23" width="8" height="8"></rect>
            <rect id="Rectangle" stroke="#004C45" stroke-width="1.5" stroke-linejoin="round" x="44" y="23" width="8" height="8"></rect>
            <rect id="Rectangle" stroke="#004C45" stroke-width="1.5" stroke-linejoin="round" x="10" y="34" width="8" height="8"></rect>
            <rect id="Rectangle" stroke="#004C45" stroke-width="1.5" stroke-linejoin="round" x="21.33" y="34" width="8" height="8"></rect>
            <rect id="Rectangle" stroke="#004C45" stroke-width="1.5" stroke-linejoin="round" x="32.67" y="34" width="8" height="8"></rect>
            <rect id="Rectangle" stroke="#004C45" stroke-width="1.5" stroke-linejoin="round" x="44" y="34" width="8" height="8"></rect>
            <rect id="Rectangle" stroke="#004C45" stroke-width="1.5" stroke-linejoin="round" x="10" y="45" width="8" height="8"></rect>
            <rect id="Rectangle" stroke="#004C45" stroke-width="1.5" stroke-linejoin="round" x="21.33" y="45" width="8" height="8"></rect>
            <rect id="Rectangle" stroke="#004C45" stroke-width="1.5" fill="#00BFB2" fill-rule="nonzero" stroke-linejoin="round" x="32.67" y="45" width="8" height="8"></rect>
        </g>
    </g>
</svg>