<?xml version="1.0" encoding="UTF-8"?>
<svg width="122px" height="37px" viewBox="0 0 119 37" version="1.1" xmlns="http://www.w3.org/2000/svg" xmlns:xlink="http://www.w3.org/1999/xlink">
    <title>EC3C815B-0F14-44A4-8651-3A84DD0ADAA3</title>
    <g id="Design" stroke="none" stroke-width="1" fill="none" fill-rule="evenodd">
        <g id="Clinical-Trials---CT-page-PRINT-A4_1" transform="translate(-238.000000, -61.000000)" fill-rule="nonzero">
            <g id="Logo-positive_DT" transform="translate(238.000000, 61.240234)">
                <polygon id="Path" fill="#ED8B22" points="47.1312853 0.248777429 43.3474608 2.67636364 44.3024451 4.18507837 48.2427586 2.13467085"></polygon>
                <path d="M7.07009404,8.45442006 L13.8593103,8.45442006 L13.8593103,11.1749216 L12.9725392,11.2993103 L12.9725392,15.7452038 C11.3233661,16.3894954 9.56689148,16.7149198 7.79636364,16.7042006 C2.6723511,16.7042006 0.0762382445,14.0438871 0.0762382445,9.22884013 C0.0762382445,5.15611285 3.10570533,1.53278997 8.02909091,1.53278997 C10.4366144,1.53278997 11.8048903,1.77354232 12.956489,2.1707837 L12.956489,6.72100313 L9.58194357,6.72100313 L9.39736677,5.30858934 C9.02449557,5.18297284 8.6298208,5.13517485 8.23774295,5.16815047 C6.29968652,5.16815047 4.49404389,6.33981191 4.49404389,9.02821317 C4.49404389,11.2511599 5.27247649,13.0407524 8.21768025,13.0407524 C8.450898,13.0526511 8.68472006,13.0419007 8.91586207,13.008652 L8.91586207,11.3795611 L7.07009404,11.1227586 L7.07009404,8.45442006 Z" id="Path" fill="#034D47"></path>
                <path d="M22.5023197,9.51774295 C22.5023197,8.21768025 21.7961129,7.81241379 21.1019436,7.81241379 C20.5379522,7.78239525 19.974714,7.88405287 19.4568025,8.10934169 L19.3163636,9.2569279 L17.1897179,9.2569279 L17.1897179,5.97065831 C18.2610658,5.48112853 19.4126646,5.21630094 21.3627586,5.21630094 C24.2999373,5.21630094 25.8848903,6.20739812 25.8848903,9.39335423 C25.8848903,11.1989969 25.8247022,12.3786834 25.7845768,13.9315361 L27.5621317,14.1080878 L27.5621317,16.38721 L25.5317868,16.5436991 L22.8353605,16.5436991 L22.8353605,15.7813166 C22.7954731,15.4775834 22.8256702,15.1687495 22.9236364,14.8784953 C22.9236364,14.8784953 21.9084639,16.7042006 20.1148589,16.7042006 C17.6551724,16.7042006 16.4514107,15.2476489 16.4514107,13.5182445 C16.4528037,12.1399583 17.3424849,10.9196853 18.6542947,10.4968025 C19.8645243,9.9697414 21.1797683,9.72810993 22.4983072,9.79059561 L22.5023197,9.51774295 Z M21.9806897,11.7968652 C20.0105329,11.7968652 19.3926019,12.1981191 19.3926019,13.000627 C19.3926019,13.5342947 19.7697806,14.0880251 20.7207524,14.0880251 C21.6717241,14.0880251 22.6507837,13.4660815 22.6507837,11.8089028 L21.9806897,11.7968652 Z" id="Shape" fill="#034D47"></path>
                <polygon id="Path" fill="#034D47" points="32.3771787 2.76062696 30.4712226 2.45968652 30.4712226 0.766394984 32.5497179 0.513605016 35.1899687 0.513605016 35.1899687 14.4010031 36.9715361 14.6497806 36.9715361 16.4554232 30.4712226 16.4554232 30.4712226 14.6417555 32.3771787 14.4090282"></polygon>
                <path d="M54.0810031,5.79009404 L56.111348,5.54532915 L58.1818182,5.54532915 C58.1818182,6.31974922 58.0132915,7.76827586 58.0132915,7.76827586 C58.5383527,6.2361725 60.0062126,5.229873 61.6245768,5.29253918 C63.9398119,5.29253918 65.637116,7.22257053 65.637116,10.4767398 C65.637116,14.0880251 63.6629467,16.7042006 60.3445768,16.7042006 C59.6077961,16.7196539 58.874521,16.598575 58.1818182,16.3470846 L58.1416928,21.7921003 L55.8746082,21.7921003 L55.9588715,7.43523511 L54.0689655,7.26670846 L54.0810031,5.79009404 Z M58.2781191,14.3969906 C58.8576197,14.7291037 59.5212974,14.8852632 60.1880878,14.846395 C62.1381818,14.846395 63.2376176,12.9605016 63.2376176,10.8338558 C63.2376176,8.79949843 62.5434483,7.37103448 60.9544828,7.37103448 C59.3655172,7.37103448 58.2981818,8.81956113 58.2981818,11.3594984 L58.2781191,14.3969906 Z" id="Shape" fill="#034D47"></path>
                <path d="M70.4922884,7.82445141 L70.1592476,6.21943574 C71.2812253,5.71176168 72.4950973,5.43867461 73.726395,5.4169279 C76.5351724,5.4169279 78.0960502,6.39598746 78.0960502,9.27297806 C78.0960502,10.2119122 78.0559248,12.9966144 78.0559248,14.950721 L79.925768,15.1232602 L79.925768,16.2868966 L78.0679624,16.439373 L76.2783699,16.439373 L76.2783699,15.9979937 C76.2783699,15.3680251 76.3144828,14.3929781 76.3144828,14.3929781 C75.7208744,15.7973263 74.3401681,16.7061857 72.8155486,16.6962574 C71.5796865,16.6962574 69.4048903,16.2387461 69.5172414,13.5984953 C69.6135423,11.2631975 72.4263323,10.1436991 76.0536677,10.1436991 L76.0536677,9.50971787 C76.0536677,7.47134796 75.2230721,6.94570533 73.525768,6.94570533 C72.6949525,6.96567031 71.8764695,7.15119312 71.1182445,7.49141066 C70.6688401,7.71210031 70.4922884,7.82445141 70.4922884,7.82445141 M76.0536677,11.5641379 C73.7584953,11.5641379 71.4472727,12.0055172 71.4472727,13.4540439 C71.4472727,14.5775549 72.1815674,15.1232602 73.1806897,15.1232602 C74.1798119,15.1232602 76.0536677,14.5775549 76.0536677,11.5641379" id="Shape" fill="#034D47"></path>
                <path d="M94.1502194,6.94971787 L93.18721,6.94971787 C92.8942947,6.94971787 92.0315987,6.86545455 91.7386834,6.84539185 C92.4408848,7.52283873 92.8154919,8.47106296 92.7658934,9.44551724 C92.7658934,11.8530408 90.7315361,13.3055799 88.1915987,13.3055799 C87.7502194,13.3055799 86.2415047,13.5583699 86.2415047,14.3368025 C86.2415047,14.8825078 86.7470846,15.0269592 88.1073354,15.2356113 L91.0043887,15.7211285 C92.6816301,15.9899687 93.9215047,16.5998746 93.9215047,18.3413166 C93.9215047,20.8411285 91.3173668,21.9726646 88.6129154,21.9726646 C86.01279,21.9726646 83.45279,21.1340439 83.45279,19.0154232 C83.45279,17.3783072 84.7729154,16.6640752 86.1813166,16.3470846 L86.1813166,16.3069592 C85.3186207,16.1183699 84.5241379,15.6368652 84.5241379,14.6297179 C84.5241379,13.5182445 85.6115361,13.2213166 86.4942947,12.9926019 L86.4942947,12.9484639 C85.76,12.7839498 83.765768,12.0496552 83.765768,9.30106583 C83.765768,7.05404389 85.6115361,5.37680251 88.2557994,5.37680251 C88.8852845,5.39045049 89.5112064,5.47525281 90.1216301,5.62959248 L94.1341693,5.62959248 L94.1502194,6.94971787 Z M87.4733542,16.7042006 C87.2606897,16.7042006 85.1019436,17.3141066 85.1019436,18.7425705 C85.1019436,20.4198119 87.6378683,20.6485266 88.7132288,20.6485266 C90.0574295,20.6485266 92.2161755,20.2472727 92.2161755,18.5098433 C92.2161755,17.5428213 91.3334169,17.2699687 90.3704075,17.1255172 L87.4733542,16.7042006 Z M85.4149216,9.32112853 C85.4306311,10.0480583 85.7362541,10.7385511 86.2637769,11.2389442 C86.7912998,11.7393373 87.4969527,12.0081119 88.2236991,11.9854545 C90.0734796,11.9854545 91.2451411,10.7816928 91.2451411,9.2569279 C91.2451411,8.20965517 90.4426332,6.6969279 88.372163,6.6969279 C86.6708464,6.6969279 85.4349843,7.72413793 85.4349843,9.32112853" id="Shape" fill="#034D47"></path>
                <path d="M102.632727,5.52125392 C105.842759,5.52125392 107.74069,7.72815047 107.74069,10.7375549 C107.74069,14.0920376 105.842759,16.5436991 102.632727,16.5436991 C99.4226959,16.5436991 97.5047022,14.3528527 97.5047022,11.3273981 C97.5047022,7.97291536 99.4066458,5.52125392 102.616677,5.52125392 M102.63674,15.5526019 C105.044263,15.5526019 106.248025,13.5784326 106.248025,11.1388088 C106.248025,8.69918495 105.044263,6.72501567 102.63674,6.72501567 C100.229216,6.72501567 99.0254545,8.69918495 99.0254545,11.1388088 C99.0254545,13.5784326 100.229216,15.5526019 102.63674,15.5526019" id="Shape" fill="#034D47"></path>
                <path d="M111.949843,14.950721 C112.800679,15.4572463 113.768615,15.7337995 114.758621,15.7532288 C116.736803,15.7532288 117.607524,14.7661442 117.607524,13.6667085 C117.607524,12.4147962 116.712727,11.8048903 114.94721,11.259185 C112.900815,10.6292163 111.889655,9.62206897 111.889655,8.3460815 C111.889655,6.82131661 113.16163,5.36476489 115.609279,5.36476489 C116.390177,5.37541599 117.162051,5.53333036 117.884389,5.83021944 C117.884389,5.83021944 117.884389,6.97780564 117.884389,6.97780564 C117.141051,6.50434107 116.27367,6.2627036 115.392602,6.28363636 C113.839749,6.28363636 113.013166,7.1784326 113.013166,8.20965517 C113.013166,9.41341693 113.976176,9.89090909 115.649404,10.4285893 C117.723887,11.0986834 118.735047,11.9533542 118.735047,13.566395 C118.735047,15.3158621 117.226332,16.6601079 114.66232,16.6601079 C113.716491,16.6635486 112.780804,16.4651938 111.917743,16.0782445 C111.917743,16.0782445 111.917743,14.9346708 111.917743,14.9346708" id="Path" fill="#034D47"></path>
                <path d="M46.5775549,9.46557994 C46.5775549,7.80840125 45.8833856,7.61178683 44.4990596,7.61178683 C43.8792886,7.63754081 43.2655328,7.74410501 42.6733542,7.92877743 L41.3010658,8.35410658 L41.0482759,6.15924765 C41.3131034,5.96664577 43.006395,5.38482759 44.956489,5.38482759 C47.8936677,5.38482759 49.4184326,6.25554859 49.4184326,9.44551724 C49.4184326,11.2511599 49.3582445,12.7598746 49.3141066,14.3127273 L51.2762382,14.5133542 L51.2762382,16.2989342 L49.354232,16.4514107 L46.8664577,16.4514107 L46.8664577,15.7813166 C46.857615,15.4106741 46.8926335,15.0402861 46.9707837,14.6778683 C46.3729154,16.1304075 44.7558621,16.6841379 43.7607524,16.6841379 C41.2850157,16.6841379 40.3139812,15.2195611 40.3139812,13.4981818 C40.3139812,11.9212539 41.8387461,10.7937304 42.6853918,10.5048276 C43.9202023,9.98915939 45.2523837,9.74818927 46.5895925,9.79862069 L46.5775549,9.46557994 Z M45.9034483,11.7045768 C43.8490282,11.7045768 43.0144201,12.5070846 43.0144201,13.2173041 C43.0019088,13.5808906 43.1476706,13.9320379 43.4139879,14.1798822 C43.6803051,14.4277266 44.0410074,14.547913 44.4027586,14.5093417 C45.4139185,14.5093417 46.6096552,13.6747335 46.6096552,11.7005643 L45.9034483,11.7045768 Z" id="Shape" fill="#034D47"></path>
                <path d="M27.0084013,25.3833229 C25.9027208,25.330492 24.8327664,25.7820865 24.0993103,26.6111599 C23.3877534,27.4136677 23.0333124,28.5331661 23.0359875,29.9696552 C23.0386625,31.4061442 23.3810658,32.5350052 24.0631975,33.3562382 C24.8053738,34.1825454 25.8836139,34.6256578 26.9923511,34.56 C27.8967559,34.5408578 28.794385,34.3991268 29.6606897,34.1386834 L29.6606897,35.2782445 C28.739036,35.5921132 27.7690583,35.7401911 26.7957367,35.7156113 C25.1479206,35.7156113 23.8772832,35.2153814 22.9838245,34.2149216 C22.0903657,33.2144619 21.6436364,31.796698 21.6436364,29.9616301 C21.6207873,28.9166312 21.8419863,27.8807058 22.2896552,26.9361755 C22.6932944,26.0933678 23.3441337,25.3935406 24.1554859,24.929906 C25.0316606,24.4427222 26.0222467,24.1988857 27.0244514,24.2236991 C28.0841488,24.2046585 29.1341493,24.4283841 30.0940439,24.8777429 L29.544326,25.9932288 C28.7549355,25.6037507 27.8885633,25.3953827 27.0084013,25.3833229 Z" id="Path" fill="#01BAB4"></path>
                <polygon id="Path" fill="#01BAB4" points="33.019185 35.5551097 31.7512226 35.5551097 31.7512226 23.6739812 33.019185 23.6739812"></polygon>
                <path d="M35.4427586,24.9098433 C35.422118,24.6761787 35.5007623,24.4446149 35.6594357,24.2718495 C35.958854,23.9964849 36.4193278,23.9964849 36.7187461,24.2718495 C36.8805745,24.4414966 36.9623208,24.6721378 36.9434483,24.9058307 C36.961437,25.1406104 36.8798932,25.3721366 36.7187461,25.5438245 C36.5784168,25.6807652 36.3891478,25.7558949 36.1931034,25.7524765 C35.994136,25.7590059 35.8012105,25.6835764 35.6594357,25.5438245 C35.5035255,25.3710355 35.4252179,25.141913 35.4427586,24.9098433 L35.4427586,24.9098433 Z M36.8190596,35.5551097 L35.5510972,35.5551097 L35.5510972,27.1769279 L36.8190596,27.1769279 L36.8190596,35.5551097 Z" id="Shape" fill="#01BAB4"></path>
                <path d="M45.0848903,35.5551097 L45.0848903,30.1341693 C45.12696,29.5842365 44.960827,29.0385754 44.6194357,28.6053918 C44.2243685,28.2409329 43.6944989,28.0589722 43.1588715,28.1038245 C42.2814629,28.1038245 41.6394566,28.3405643 41.2328527,28.8140439 C40.8315987,29.2875235 40.6229467,30.0699687 40.6229467,31.1613793 L40.6229467,35.5751724 L39.3509718,35.5751724 L39.3509718,27.1769279 L40.3821944,27.1769279 L40.5908464,28.3245141 L40.6510345,28.3245141 C40.9134112,27.9096445 41.2875399,27.5772401 41.7304075,27.3655172 C42.2193047,27.1342782 42.7545156,27.0176297 43.2952978,27.0244514 C44.1197412,26.9630788 44.9357042,27.2249929 45.5704075,27.7547335 C46.0786625,28.2389133 46.3341275,29.0173459 46.3368025,30.0900313 L46.3368025,35.5551097 L45.0848903,35.5551097 Z" id="Path" fill="#01BAB4"></path>
                <path d="M48.692163,24.9098433 C48.6715224,24.6761787 48.7501667,24.4446149 48.9088401,24.2718495 C49.2124294,24.0033432 49.6685737,24.0033432 49.972163,24.2718495 C50.1307877,24.4432322 50.2107682,24.6729942 50.1928527,24.9058307 C50.2099542,25.1397689 50.1301574,25.370454 49.972163,25.5438245 C49.830355,25.6809987 49.6397724,25.7560767 49.4425078,25.7524765 C49.2435404,25.7590059 49.0506149,25.6835764 48.9088401,25.5438245 C48.7529299,25.3710355 48.6746222,25.141913 48.692163,24.9098433 Z M50.0684639,35.5551097 L48.8005016,35.5551097 L48.8005016,27.1769279 L50.0684639,27.1769279 L50.0684639,35.5551097 Z" id="Shape" fill="#01BAB4"></path>
                <path d="M55.9508464,35.7115987 C54.8950971,35.7721961 53.866686,35.3623008 53.142069,34.5921003 C52.4759875,33.845768 52.1429467,32.7891327 52.1429467,31.4221944 C52.1429467,30.0218182 52.4840125,28.9384326 53.1581191,28.1760502 C53.9011595,27.3833439 54.9586216,26.9627122 56.0431348,27.0284639 C56.4480001,27.0288752 56.8516224,27.0732736 57.2468966,27.1608777 C57.5756563,27.221314 57.8952718,27.3238067 58.1978683,27.4658307 L57.7966144,28.5411912 C57.4999605,28.423424 57.1939295,28.3308093 56.8817555,28.264326 C56.593921,28.1943604 56.299188,28.1566777 56.0030094,28.1519749 C54.3016928,28.1519749 53.4510345,29.2380355 53.4510345,31.4101567 C53.3980711,32.2456678 53.6161985,33.0759593 54.0729781,33.7775549 C54.5195611,34.3313506 55.2091591,34.6311758 55.9187461,34.5800627 C56.6568925,34.5727619 57.3863627,34.4200503 58.0654545,34.1306583 L58.0654545,35.2541693 C57.4070988,35.5729497 56.6820937,35.729782 55.9508464,35.7115987 L55.9508464,35.7115987 Z" id="Path" fill="#01BAB4"></path>
                <path d="M65.0472727,35.5551097 L64.7944828,34.351348 L64.7342947,34.351348 C64.4079796,34.8017804 63.9787574,35.1677198 63.4823824,35.4186834 C62.9900229,35.6195986 62.4610727,35.7152743 61.9295298,35.6995611 C61.2204159,35.7403347 60.5221862,35.5109368 59.9754232,35.0575549 C59.4858482,34.5805594 59.2280669,33.9141362 59.2692163,33.2318495 C59.2692163,31.538558 60.621442,30.6517868 63.3258934,30.5715361 L64.7463323,30.5233856 L64.7463323,30.0137931 C64.7888673,29.4930772 64.6389646,28.9748421 64.3250157,28.5572414 C63.960885,28.2139861 63.4671938,28.043093 62.9687774,28.0877743 C62.1401227,28.1209618 61.329589,28.3403957 60.5973668,28.7297806 L60.1961129,27.7587461 C60.6252805,27.5293493 61.0806845,27.3528465 61.5523511,27.2331034 C62.0356584,27.1060138 62.533241,27.0412876 63.0329781,27.0405016 C64.0334378,27.0405016 64.7730825,27.2625287 65.2519122,27.7065831 C65.7307419,28.1506374 65.9714943,28.8608568 65.9741693,29.8372414 L65.9741693,35.5551097 L65.0472727,35.5551097 Z M62.1943574,34.6603135 C62.8753799,34.6989707 63.5438018,34.4650952 64.052163,34.0102821 C64.5231264,33.5263091 64.7691738,32.8667857 64.7302821,32.1926019 L64.7302821,31.434232 L63.4623197,31.486395 C62.7067512,31.4612583 61.956747,31.6239431 61.2794984,31.9598746 C60.8343425,32.2334542 60.5765887,32.7304405 60.6094044,33.2519122 C60.5785499,33.6436264 60.7259618,34.0283715 61.0106583,34.299185 C61.3468142,34.562137 61.7686663,34.6908376 62.1943574,34.6603135 Z" id="Shape" fill="#01BAB4"></path>
                <polygon id="Path" fill="#01BAB4" points="69.7098433 35.5551097 68.4418809 35.5551097 68.4418809 23.6739812 69.7098433 23.6739812"></polygon>
                <polygon id="Path" fill="#01BAB4" points="80.944953 35.5551097 77.923511 35.5551097 77.923511 26.8519122 75.1989969 26.8519122 75.1989969 24.3801881 83.6654545 24.3801881 83.6654545 26.8519122 80.944953 26.8519122"></polygon>
                <path d="M90.1537304,26.7435353 C90.40243,26.7425332 90.6507668,26.7626686 90.8960502,26.8037618 L91.0645768,26.8358621 L90.7957367,29.6446395 C90.4618171,29.5766134 90.1212137,29.5469957 89.7805643,29.5563636 C89.2667689,29.5107131 88.7558673,29.6709111 88.3601254,30.0017555 C88.0411784,30.3549852 87.8802974,30.8231347 87.9147335,31.2978056 L87.9147335,35.5551097 L84.9294044,35.5551097 L84.9294044,26.8840125 L87.1523511,26.8840125 L87.6178056,28.2683386 L87.7622571,28.2683386 C88.0079655,27.813808 88.3674382,27.4308313 88.8055172,27.1568652 C89.205456,26.8915323 89.6737999,26.7479626 90.1537304,26.7435353 L90.1537304,26.7435353 Z" id="Path" fill="#01BAB4"></path>
                <path d="M92.055674,24.7413166 C92.0264833,24.3683306 92.1629783,24.0014083 92.4288401,23.7381818 C92.7793718,23.4916209 93.2056089,23.3765368 93.6326019,23.4131661 C94.0603986,23.3805833 94.4861485,23.4983742 94.8363636,23.7462069 C95.1038788,24.0055178 95.2433627,24.369644 95.2175549,24.7413166 C95.2175549,25.6160502 94.6838871,26.0574295 93.6125392,26.0574295 C92.5411912,26.0574295 92.055674,25.6160502 92.055674,24.7413166 Z M95.1172414,35.5751724 L92.1319122,35.5751724 L92.1319122,26.8840125 L95.1172414,26.8840125 L95.1172414,35.5751724 Z" id="Shape" fill="#01BAB4"></path>
                <path d="M102.692915,35.5551097 L102.123135,34.4075235 L102.058934,34.4075235 C101.736251,34.8408143 101.315474,35.1914621 100.831097,35.430721 C100.320401,35.6308886 99.7743257,35.7250866 99.2260815,35.7075862 C98.5092284,35.7455281 97.8097112,35.4788372 97.3000627,34.9732915 C96.7949373,34.4060515 96.5364848,33.6610151 96.5818182,32.9028213 C96.5272782,32.0955689 96.8908945,31.3168241 97.5448276,30.8403762 C98.3858761,30.3333774 99.3515626,30.0707662 100.333542,30.0820063 L101.778056,30.0338558 L101.778056,29.9134796 C101.820295,29.620541 101.721941,29.3248342 101.51266,29.1155531 C101.303379,28.906272 101.007672,28.8079177 100.714734,28.8501567 C99.8778134,28.9037439 99.0596863,29.1219111 98.30721,29.492163 L97.4445141,27.5220063 C98.6383297,26.9640327 99.9474911,26.6972498 101.264451,26.7435737 C102.194708,26.6778136 103.115678,26.9642741 103.844514,27.5460815 C104.474163,28.1447003 104.808727,28.9899132 104.759373,29.8573041 L104.759373,35.535047 L102.692915,35.5551097 Z M100.477994,33.5969906 C100.820623,33.6029616 101.152952,33.4797709 101.408903,33.2519122 C101.67008,33.0306401 101.817504,32.7033575 101.810157,32.3611285 L101.810157,31.6990596 L101.12,31.7311599 C100.136928,31.7632602 99.6473981,32.1324138 99.6473981,32.8145455 C99.631348,33.332163 99.9122257,33.5969906 100.477994,33.5969906 L100.477994,33.5969906 Z" id="Shape" fill="#01BAB4"></path>
                <polygon id="Path" fill="#01BAB4" points="109.630596 35.5551097 106.641254 35.5551097 106.641254 23.6739812 109.630596 23.6739812"></polygon>
                <path d="M118.229467,32.9028213 C118.28089,33.7160091 117.926268,34.5018875 117.282508,35.0013793 C116.648527,35.477534 115.741693,35.7156113 114.562006,35.7156113 C114.002502,35.7203051 113.443365,35.6854429 112.888777,35.6112853 C112.392861,35.5361108 111.906077,35.4097084 111.436238,35.2341066 L111.436238,32.8265831 C111.928875,33.0379681 112.439079,33.2057986 112.961003,33.3281505 C113.443752,33.4521167 113.939294,33.5194458 114.437618,33.5287774 C115.087649,33.5287774 115.408652,33.3803135 115.408652,33.0833856 C115.393577,32.9124524 115.292164,32.7610891 115.139812,32.6821317 C114.628548,32.4153284 114.100451,32.1821075 113.558871,31.9839498 C112.916713,31.7643277 112.342814,31.3812676 111.893668,30.8724765 C111.565123,30.4139888 111.39854,29.8591831 111.420188,29.2955486 C111.391038,28.5499781 111.743344,27.8408304 112.35511,27.4136677 C113.142589,26.9211212 114.064251,26.6868478 114.991348,26.7435737 C115.531869,26.7395881 116.070857,26.8015718 116.596364,26.9281505 C117.132454,27.0672888 117.655921,27.2511734 118.161254,27.4778683 L117.358746,29.4038871 C116.950967,29.2196996 116.529774,29.0667824 116.098809,28.9464577 C115.745986,28.8375937 115.380394,28.7755375 115.011411,28.7618809 C114.521881,28.7618809 114.281129,28.8782445 114.281129,29.1189969 C114.290169,29.28146 114.387084,29.4260638 114.533918,29.4961755 C115.014973,29.7367238 115.509313,29.949732 116.014545,30.1341693 C116.496488,30.3192306 116.952375,30.5660569 117.370784,30.8684639 C117.656054,31.0926367 117.882003,31.38334 118.02884,31.7151097 C118.174967,32.0934769 118.243206,32.4974499 118.229467,32.9028213 Z" id="Path" fill="#01BAB4"></path>
            </g>
        </g>
    </g>
</svg>