<?xml version="1.0" encoding="UTF-8"?>
<svg width="231px" height="70px" viewBox="0 0 231 70" version="1.1" xmlns="http://www.w3.org/2000/svg" xmlns:xlink="http://www.w3.org/1999/xlink">
    <title>76508DB1-E199-494F-B748-A8F1C2FCCCF6</title>
    <g id="Design" stroke="none" stroke-width="1" fill="none" fill-rule="evenodd">
        <g id="Landing-page_Rollover_DT" transform="translate(-376.000000, -40.000000)" fill-rule="nonzero">
            <g id="Logo-positive_DT" transform="translate(376.000000, 40.000000)">
                <polygon id="Path" fill="#ED8B22" points="91.3577778 0.482222222 84.0233333 5.18777778 85.8744444 8.11222222 93.5122222 4.13777778"></polygon>
                <path d="M13.7044444,16.3877778 L26.8644444,16.3877778 L26.8644444,21.6611111 L25.1455556,21.9022222 L25.1455556,30.52 C21.9488511,31.7688744 18.5441568,32.3996666 15.1122222,32.3788889 C5.18,32.3788889 0.147777778,27.2222222 0.147777778,17.8888889 C0.147777778,9.99444444 6.02,2.97111111 15.5633333,2.97111111 C20.23,2.97111111 22.8822222,3.43777778 25.1144444,4.20777778 L25.1144444,13.0277778 L18.5733333,13.0277778 L18.2155556,10.29 C17.4927939,10.046509 16.727769,9.9538589 15.9677778,10.0177778 C12.2111111,10.0177778 8.71111111,12.2888889 8.71111111,17.5 C8.71111111,21.8088889 10.22,25.2777778 15.9288889,25.2777778 C16.3809507,25.300842 16.8341839,25.2800037 17.2822222,25.2155556 L17.2822222,22.0577778 L13.7044444,21.56 L13.7044444,16.3877778 Z" id="Path" fill="#034D47"></path>
                <path d="M43.6177778,18.4488889 C43.6177778,15.9288889 42.2488889,15.1433333 40.9033333,15.1433333 C39.8101105,15.0851464 38.7183476,15.2821962 37.7144444,15.7188889 L37.4422222,17.9433333 L33.32,17.9433333 L33.32,11.5733333 C35.3966667,10.6244444 37.6288889,10.1111111 41.4088889,10.1111111 C47.1022222,10.1111111 50.1744444,12.0322222 50.1744444,18.2077778 C50.1744444,21.7077778 50.0577778,23.9944444 49.98,27.0044444 L53.4255556,27.3466667 L53.4255556,31.7644444 L49.49,32.0677778 L44.2633333,32.0677778 L44.2633333,30.59 C44.1860169,30.0012532 44.24455,29.4026195 44.4344444,28.84 C44.4344444,28.84 42.4666667,32.3788889 38.99,32.3788889 C34.2222222,32.3788889 31.8888889,29.5555556 31.8888889,26.2033333 C31.8915892,23.5317074 33.6161187,21.1663691 36.1588889,20.3466667 C38.5047594,19.3250283 41.0541864,18.8566575 43.61,18.9777778 L43.6177778,18.4488889 Z M42.6066667,22.8666667 C38.7877778,22.8666667 37.59,23.6444444 37.59,25.2 C37.59,26.2344444 38.3211111,27.3077778 40.1644444,27.3077778 C42.0077778,27.3077778 43.9055556,26.1022222 43.9055556,22.89 L42.6066667,22.8666667 Z" id="Shape" fill="#034D47"></path>
                <polygon id="Path" fill="#034D47" points="62.7588889 5.35111111 59.0644444 4.76777778 59.0644444 1.48555556 63.0933333 0.995555556 68.2111111 0.995555556 68.2111111 27.9144444 71.6644444 28.3966667 71.6644444 31.8966667 59.0644444 31.8966667 59.0644444 28.3811111 62.7588889 27.93"></polygon>
                <path d="M104.828889,11.2233333 L108.764444,10.7488889 L112.777778,10.7488889 C112.777778,12.25 112.451111,15.0577778 112.451111,15.0577778 C113.468873,12.0879976 116.314126,10.1374188 119.451111,10.2588889 C123.938889,10.2588889 127.228889,14 127.228889,20.3077778 C127.228889,27.3077778 123.402222,32.3788889 116.97,32.3788889 C115.541848,32.408843 114.120491,32.1741476 112.777778,31.6866667 L112.7,42.2411111 L108.305556,42.2411111 L108.468889,14.4122222 L104.805556,14.0855556 L104.828889,11.2233333 Z M112.964444,27.9066667 C114.08773,28.5504241 115.374182,28.8531186 116.666667,28.7777778 C120.446667,28.7777778 122.577778,25.1222222 122.577778,21 C122.577778,17.0566667 121.232222,14.2877778 118.152222,14.2877778 C115.072222,14.2877778 113.003333,17.0955556 113.003333,22.0188889 L112.964444,27.9066667 Z" id="Shape" fill="#034D47"></path>
                <path d="M136.64,15.1666667 L135.994444,12.0555556 C138.16925,11.0714964 140.522181,10.5421531 142.908889,10.5 C148.353333,10.5 151.378889,12.3977778 151.378889,17.9744444 C151.378889,19.7944444 151.301111,25.1922222 151.301111,28.98 L154.925556,29.3144444 L154.925556,31.57 L151.324444,31.8655556 L147.855556,31.8655556 L147.855556,31.01 C147.855556,29.7888889 147.925556,27.8988889 147.925556,27.8988889 C146.774924,30.6210326 144.098607,32.3827367 141.143333,32.363492 C138.747778,32.363492 134.532222,31.4766667 134.75,26.3588889 C134.936667,21.8322222 140.388889,19.6622222 147.42,19.6622222 L147.42,18.4333333 C147.42,14.4822222 145.81,13.4633333 142.52,13.4633333 C140.909574,13.5020328 139.323052,13.8616443 137.853333,14.5211111 C136.982222,14.9488889 136.64,15.1666667 136.64,15.1666667 M147.42,22.4155556 C142.971111,22.4155556 138.491111,23.2711111 138.491111,26.0788889 C138.491111,28.2566667 139.914444,29.3144444 141.851111,29.3144444 C143.787778,29.3144444 147.42,28.2566667 147.42,22.4155556" id="Shape" fill="#034D47"></path>
                <path d="M182.497778,13.4711111 L180.631111,13.4711111 C180.063333,13.4711111 178.391111,13.3077778 177.823333,13.2688889 C179.184458,14.5820303 179.910585,16.4200378 179.814444,18.3088889 C179.814444,22.9755556 175.871111,25.7911111 170.947778,25.7911111 C170.092222,25.7911111 167.167778,26.2811111 167.167778,27.79 C167.167778,28.8477778 168.147778,29.1277778 170.784444,29.5322222 L176.4,30.4733333 C179.651111,30.9944444 182.054444,32.1766667 182.054444,35.5522222 C182.054444,40.3977778 177.006667,42.5911111 171.764444,42.5911111 C166.724444,42.5911111 161.762222,40.9655556 161.762222,36.8588889 C161.762222,33.6855556 164.321111,32.3011111 167.051111,31.6866667 L167.051111,31.6088889 C165.378889,31.2433333 163.838889,30.31 163.838889,28.3577778 C163.838889,26.2033333 165.946667,25.6277778 167.657778,25.1844444 L167.657778,25.0988889 C166.234444,24.78 162.368889,23.3566667 162.368889,18.0288889 C162.368889,13.6733333 165.946667,10.4222222 171.072222,10.4222222 C172.292396,10.448677 173.505663,10.6130551 174.688889,10.9122222 L182.466667,10.9122222 L182.497778,13.4711111 Z M169.555556,32.3788889 C169.143333,32.3788889 164.958889,33.5611111 164.958889,36.33 C164.958889,39.5811111 169.874444,40.0244444 171.958889,40.0244444 C174.564444,40.0244444 178.748889,39.2466667 178.748889,35.8788889 C178.748889,34.0044444 177.037778,33.4755556 175.171111,33.1955556 L169.555556,32.3788889 Z M165.565556,18.0677778 C165.596006,19.4768352 166.188416,20.8152645 167.21095,21.7852105 C168.233483,22.7551565 169.601298,23.2761405 171.01,23.2322222 C174.595556,23.2322222 176.866667,20.8988889 176.866667,17.9433333 C176.866667,15.9133333 175.311111,12.9811111 171.297778,12.9811111 C168,12.9811111 165.604444,14.9722222 165.604444,18.0677778" id="Shape" fill="#034D47"></path>
                <path d="M198.94,10.7022222 C205.162222,10.7022222 208.841111,14.98 208.841111,20.8133333 C208.841111,27.3155556 205.162222,32.0677778 198.94,32.0677778 C192.717778,32.0677778 189,27.8211111 189,21.9566667 C189,15.4544444 192.686667,10.7022222 198.908889,10.7022222 M198.947778,30.1466667 C203.614444,30.1466667 205.947778,26.32 205.947778,21.5911111 C205.947778,16.8622222 203.614444,13.0355556 198.947778,13.0355556 C194.281111,13.0355556 191.947778,16.8622222 191.947778,21.5911111 C191.947778,26.32 194.281111,30.1466667 198.947778,30.1466667" id="Shape" fill="#034D47"></path>
                <path d="M217,28.98 C218.649232,29.9618325 220.525449,30.4978943 222.444444,30.5355556 C226.278889,30.5355556 227.966667,28.6222222 227.966667,26.4911111 C227.966667,24.0644444 226.232222,22.8822222 222.81,21.8244444 C218.843333,20.6033333 216.883333,18.6511111 216.883333,16.1777778 C216.883333,13.2222222 219.348889,10.3988889 224.093333,10.3988889 C225.607,10.4195346 227.103177,10.7256308 228.503333,11.3011111 C228.503333,11.3011111 228.503333,13.5255556 228.503333,13.5255556 C227.062471,12.607807 225.381168,12.1394246 223.673333,12.18 C220.663333,12.18 219.061111,13.9144444 219.061111,15.9133333 C219.061111,18.2466667 220.927778,19.1722222 224.171111,20.2144444 C228.192222,21.5133333 230.152222,23.17 230.152222,26.2966667 C230.152222,29.6877778 227.227778,32.2934209 222.257778,32.2934209 C220.424414,32.3000903 218.610708,31.9156058 216.937778,31.1655556 C216.937778,31.1655556 216.937778,28.9488889 216.937778,28.9488889" id="Path" fill="#034D47"></path>
                <path d="M90.2844444,18.3477778 C90.2844444,15.1355556 88.9388889,14.7544444 86.2555556,14.7544444 C85.0542113,14.8043651 83.8645266,15.0109258 82.7166667,15.3688889 L80.0566667,16.1933333 L79.5666667,11.9388889 C80.08,11.5655556 83.3622222,10.4377778 87.1422222,10.4377778 C92.8355556,10.4377778 95.7911111,12.1255556 95.7911111,18.3088889 C95.7911111,21.8088889 95.6744444,24.7333333 95.5888889,27.7433333 L99.3922222,28.1322222 L99.3922222,31.5933333 L95.6666667,31.8888889 L90.8444444,31.8888889 L90.8444444,30.59 C90.827304,29.8715583 90.8951828,29.1536101 91.0466667,28.4511111 C89.8877778,31.2666667 86.7533333,32.34 84.8244444,32.34 C80.0255556,32.34 78.1433333,29.5011111 78.1433333,26.1644444 C78.1433333,23.1077778 81.0988889,20.9222222 82.74,20.3622222 C85.1335172,19.3626675 87.715775,18.8955787 90.3077778,18.9933333 L90.2844444,18.3477778 Z M88.9777778,22.6877778 C84.9955556,22.6877778 83.3777778,24.2433333 83.3777778,25.62 C83.3535264,26.3247645 83.6360665,27.0054172 84.1522872,27.4858308 C84.668508,27.9662443 85.3676819,28.1992098 86.0688889,28.1244444 C88.0288889,28.1244444 90.3466667,26.5066667 90.3466667,22.68 L88.9777778,22.6877778 Z" id="Shape" fill="#034D47"></path>
                <path d="M52.3522222,49.2022222 C50.2090066,49.0998165 48.135041,49.975173 46.7133333,51.5822222 C45.3340741,53.1377778 44.647037,55.3077778 44.6522222,58.0922222 C44.6574074,60.8766667 45.3211111,63.0648148 46.6433333,64.6566667 C48.0819442,66.2583541 50.1719703,67.1172689 52.3211111,66.99 C54.0741805,66.9528953 55.8141161,66.6781686 57.4933333,66.1733333 L57.4933333,68.3822222 C55.7068293,68.9906153 53.8266555,69.2776446 51.94,69.23 C48.7459259,69.23 46.282963,68.2603704 44.5511111,66.3211111 C42.8192593,64.3818519 41.9533333,61.6337037 41.9533333,58.0766667 C41.9090435,56.0510742 42.3378085,54.0430694 43.2055556,52.2122222 C43.9879569,50.5785507 45.2495231,49.2220279 46.8222222,48.3233333 C48.5205713,47.3789919 50.4406917,46.9063469 52.3833333,46.9544444 C54.4374169,46.9175369 56.4727043,47.3511994 58.3333333,48.2222222 L57.2677778,50.3844444 C55.7376484,49.6294925 54.0583001,49.2255986 52.3522222,49.2022222 Z" id="Path" fill="#01BAB4"></path>
                <polygon id="Path" fill="#01BAB4" points="64.0033333 68.9188889 61.5455556 68.9188889 61.5455556 45.8888889 64.0033333 45.8888889"></polygon>
                <path d="M68.7011111,48.2844444 C68.661102,47.8315166 68.8135436,47.3826607 69.1211111,47.0477778 C69.701494,46.5140198 70.5940616,46.5140198 71.1744444,47.0477778 C71.4881275,47.3766162 71.6465818,47.8236837 71.61,48.2766667 C71.6448688,48.7317561 71.4868068,49.1805391 71.1744444,49.5133333 C70.9024346,49.7787749 70.5355617,49.9244038 70.1555556,49.9177778 C69.7698833,49.9304341 69.3959228,49.784224 69.1211111,49.5133333 C68.8188998,49.1784047 68.6671107,48.7342809 68.7011111,48.2844444 L68.7011111,48.2844444 Z M71.3688889,68.9188889 L68.9111111,68.9188889 L68.9111111,52.6788889 L71.3688889,52.6788889 L71.3688889,68.9188889 Z" id="Shape" fill="#01BAB4"></path>
                <path d="M87.3911111,68.9188889 L87.3911111,58.4111111 C87.4726577,57.3451389 87.1506307,56.2874469 86.4888889,55.4477778 C85.7231031,54.7413222 84.6960209,54.3886154 83.6577778,54.4755556 C81.957037,54.4755556 80.7125926,54.9344444 79.9244444,55.8522222 C79.1466667,56.77 78.7422222,58.2866667 78.7422222,60.4022222 L78.7422222,68.9577778 L76.2766667,68.9577778 L76.2766667,52.6788889 L78.2755556,52.6788889 L78.68,54.9033333 L78.7966667,54.9033333 C79.3052492,54.0991632 80.0304484,53.4548413 80.8888889,53.0444444 C81.8365516,52.5962181 82.8739872,52.3701103 83.9222222,52.3833333 C85.520297,52.2643707 87.1019336,52.7720565 88.3322222,53.7988889 C89.3174074,54.7374074 89.8125926,56.2462963 89.8177778,58.3255556 L89.8177778,68.9188889 L87.3911111,68.9188889 Z" id="Path" fill="#01BAB4"></path>
                <path d="M94.3833333,48.2844444 C94.3433242,47.8315166 94.4957658,47.3826607 94.8033333,47.0477778 C95.3918011,46.5273136 96.2759767,46.5273136 96.8644444,47.0477778 C97.1719175,47.3799804 97.3269491,47.8253438 97.2922222,48.2766667 C97.3253712,48.730125 97.1706958,49.1772776 96.8644444,49.5133333 C96.5895684,49.7792274 96.2201491,49.9247562 95.8377778,49.9177778 C95.4521056,49.9304341 95.078145,49.784224 94.8033333,49.5133333 C94.501122,49.1784047 94.3493329,48.7342809 94.3833333,48.2844444 Z M97.0511111,68.9188889 L94.5933333,68.9188889 L94.5933333,52.6788889 L97.0511111,52.6788889 L97.0511111,68.9188889 Z" id="Shape" fill="#01BAB4"></path>
                <path d="M108.453333,69.2222222 C106.406903,69.3396822 104.413463,68.5451542 103.008889,67.0522222 C101.717778,65.6055556 101.072222,63.5574074 101.072222,60.9077778 C101.072222,58.1933333 101.733333,56.0933333 103.04,54.6155556 C104.480286,53.078999 106.530036,52.2636601 108.632222,52.3911111 C109.417,52.3919082 110.199369,52.4779688 110.965556,52.6477778 C111.602813,52.7649255 112.222345,52.9635942 112.808889,53.2388889 L112.031111,55.3233333 C111.456087,55.0950571 110.862886,54.9155358 110.257778,54.7866667 C109.699849,54.6510476 109.128548,54.5780045 108.554444,54.5688889 C105.256667,54.5688889 103.607778,56.6740741 103.607778,60.8844444 C103.505115,62.5039724 103.927926,64.1133829 104.813333,65.4733333 C105.678976,66.5467934 107.01567,67.127965 108.391111,67.0288889 C109.821911,67.0147372 111.235892,66.718726 112.552222,66.1577778 L112.552222,68.3355556 C111.276087,68.9534694 109.87076,69.257468 108.453333,69.2222222 L108.453333,69.2222222 Z" id="Path" fill="#01BAB4"></path>
                <path d="M126.085556,68.9188889 L125.595556,66.5855556 L125.478889,66.5855556 C124.84637,67.4586594 124.01438,68.1679847 123.052222,68.6544444 C122.097848,69.043892 121.072548,69.2293469 120.042222,69.1988889 C118.667699,69.277923 117.314272,68.8332656 116.254444,67.9544444 C115.305468,67.0298517 114.805793,65.7380783 114.885556,64.4155556 C114.885556,61.1333333 117.506667,59.4144444 122.748889,59.2588889 L125.502222,59.1655556 L125.502222,58.1777778 C125.584671,57.1684387 125.294104,56.1639083 124.685556,55.3544444 C123.979736,54.6890895 123.022781,54.3578357 122.056667,54.4444444 C120.450429,54.5087741 118.879316,54.9341176 117.46,55.6888889 L116.682222,53.8066667 C117.514107,53.3620112 118.396848,53.0198839 119.311111,52.7877778 C120.247939,52.5414313 121.212437,52.4159681 122.181111,52.4144444 C124.12037,52.4144444 125.554074,52.8448148 126.482222,53.7055556 C127.41037,54.5662963 127.877037,55.942963 127.882222,57.8355556 L127.882222,68.9188889 L126.085556,68.9188889 Z M120.555556,67.1844444 C121.875628,67.2593764 123.171276,66.8060396 124.156667,65.9244444 C125.069567,64.9863266 125.546497,63.7079276 125.471111,62.4011111 L125.471111,60.9311111 L123.013333,61.0322222 C121.548763,60.9834981 120.094979,61.298841 118.782222,61.95 C117.919346,62.4802979 117.419724,63.4436404 117.483333,64.4544444 C117.423526,65.2137307 117.709265,65.9595083 118.261111,66.4844444 C118.912705,66.9941423 119.73041,67.2436115 120.555556,67.1844444 Z" id="Shape" fill="#01BAB4"></path>
                <polygon id="Path" fill="#01BAB4" points="135.123333 68.9188889 132.665556 68.9188889 132.665556 45.8888889 135.123333 45.8888889"></polygon>
                <polygon id="Path" fill="#01BAB4" points="156.901111 68.9188889 151.044444 68.9188889 151.044444 52.0488889 145.763333 52.0488889 145.763333 47.2577778 162.174444 47.2577778 162.174444 52.0488889 156.901111 52.0488889"></polygon>
                <path d="M174.751111,51.8388146 C175.233183,51.8368721 175.71455,51.875902 176.19,51.9555556 L176.516667,52.0177778 L175.995556,57.4622222 C175.348297,57.3303626 174.688082,57.2729527 174.027778,57.2911111 C173.031853,57.2026235 172.041538,57.5131462 171.274444,58.1544444 C170.656208,58.8391336 170.344361,59.7465796 170.411111,60.6666667 L170.411111,68.9188889 L164.624444,68.9188889 L164.624444,52.1111111 L168.933333,52.1111111 L169.835556,54.7944444 L170.115556,54.7944444 C170.591829,53.913397 171.288619,53.1710472 172.137778,52.64 C172.913006,52.1256871 173.820829,51.8473962 174.751111,51.8388146 L174.751111,51.8388146 Z" id="Path" fill="#01BAB4"></path>
                <path d="M178.437778,47.9577778 C178.381195,47.2347935 178.645773,46.5235632 179.161111,46.0133333 C179.84057,45.5354074 180.666775,45.3123323 181.494444,45.3833333 C182.323672,45.3201759 183.148932,45.5484978 183.827778,46.0288889 C184.346321,46.531529 184.616692,47.2373395 184.566667,47.9577778 C184.566667,49.6533333 183.532222,50.5088889 181.455556,50.5088889 C179.378889,50.5088889 178.437778,49.6533333 178.437778,47.9577778 Z M184.372222,68.9577778 L178.585556,68.9577778 L178.585556,52.1111111 L184.372222,52.1111111 L184.372222,68.9577778 Z" id="Shape" fill="#01BAB4"></path>
                <path d="M199.056667,68.9188889 L197.952222,66.6944444 L197.827778,66.6944444 C197.202299,67.5343214 196.386678,68.214006 195.447778,68.6777778 C194.45786,69.0657763 193.399366,69.2483666 192.336667,69.2144444 C190.947141,69.2879899 189.59122,68.7710447 188.603333,67.7911111 C187.624214,66.6915912 187.123238,65.2474363 187.211111,63.7777778 C187.105393,62.2130255 187.810215,60.7035313 189.077778,59.78 C190.708039,58.7972497 192.579895,58.2882126 194.483333,58.31 L197.283333,58.2166667 L197.283333,57.9833333 C197.365208,57.4155105 197.174561,56.8423219 196.768897,56.4366581 C196.363234,56.0309943 195.790045,55.8403474 195.222222,55.9222222 C193.599963,56.0260938 192.014131,56.4489822 190.555556,57.1666667 L188.883333,53.3477778 C191.197387,52.2662196 193.735024,51.7490962 196.287778,51.8388889 C198.090957,51.7114216 199.876137,52.2666875 201.288889,53.3944444 C202.509381,54.554788 203.157888,56.1931217 203.062222,57.8744444 L203.062222,68.88 L199.056667,68.9188889 Z M194.763333,65.1233333 C195.427475,65.1349074 196.07165,64.8961185 196.567778,64.4544444 C197.074034,64.0255376 197.359798,63.3911435 197.345556,62.7277778 L197.345556,61.4444444 L196.007778,61.5066667 C194.102222,61.5688889 193.153333,62.2844444 193.153333,63.6066667 C193.122222,64.61 193.666667,65.1233333 194.763333,65.1233333 L194.763333,65.1233333 Z" id="Shape" fill="#01BAB4"></path>
                <polygon id="Path" fill="#01BAB4" points="212.504444 68.9188889 206.71 68.9188889 206.71 45.8888889 212.504444 45.8888889"></polygon>
                <path d="M229.172222,63.7777778 C229.271898,65.3540351 228.58451,66.8773566 227.336667,67.8455556 C226.107778,68.7685185 224.35,69.23 222.063333,69.23 C220.978808,69.2390984 219.894996,69.1715226 218.82,69.0277778 C217.858731,68.882062 216.915165,68.6370477 216.004444,68.2966667 L216.004444,63.63 C216.959355,64.039742 217.94832,64.3650592 218.96,64.6022222 C219.895744,64.8425144 220.856287,64.9730229 221.822222,64.9911111 C223.082222,64.9911111 223.704444,64.7033333 223.704444,64.1277778 C223.675224,63.7964464 223.478648,63.5030485 223.183333,63.35 C222.192317,62.8328371 221.168668,62.3807692 220.118889,61.9966667 C218.87415,61.5709581 217.761723,60.8284467 216.891111,59.8422222 C216.254271,58.9535042 215.931372,57.8780867 215.973333,56.7855556 C215.916831,55.3403656 216.599729,53.9657763 217.785556,53.1377778 C219.31198,52.1830414 221.098501,51.7289334 222.895556,51.8388889 C223.943285,51.8311635 224.988042,51.9513106 226.006667,52.1966667 C227.045807,52.4663679 228.060479,52.822804 229.04,53.2622222 L227.484444,56.9955556 C226.694018,56.6385322 225.877591,56.3421224 225.042222,56.1088889 C224.358322,55.8978704 223.64967,55.7775826 222.934444,55.7511111 C221.985556,55.7511111 221.518889,55.9766667 221.518889,56.4433333 C221.536412,56.7582468 221.72427,57.0385422 222.008889,57.1744444 C222.94135,57.6407156 223.899562,58.0536038 224.878889,58.4111111 C225.813071,58.769828 226.696747,59.2482682 227.507778,59.8344444 C228.060736,60.2689738 228.498709,60.8324637 228.783333,61.4755556 C229.066581,62.2089703 229.198853,62.9920188 229.172222,63.7777778 Z" id="Path" fill="#01BAB4"></path>
            </g>
        </g>
    </g>
</svg>