<?xml version="1.0" encoding="UTF-8"?>
<svg width="45px" height="40px" viewBox="0 0 69 62" version="1.1" xmlns="http://www.w3.org/2000/svg" xmlns:xlink="http://www.w3.org/1999/xlink">
    <title>40D86955-77F6-4D1E-B17C-DA7F0739BB30</title>
    <g id="Symbols" stroke="none" stroke-width="1" fill="none" fill-rule="evenodd">
        <g id="icon/gender" fill-rule="nonzero">
            <path d="M20.0505617,46.34 L20.0505617,53.15 L14.0505617,53.15 L14.0505617,55.44 L20.0505617,55.44 L20.0505617,61.37 L22.3305617,61.37 L22.3305617,55.44 L28.3305617,55.44 L28.3305617,53.15 L22.3305617,53.15 L22.3305617,46.34 C33.3805617,45.75 9.00056167,45.75 20.0505617,46.34 Z" id="Path" fill="#00BFB2"></path>
            <path d="M21.0005617,47.2200974 C10.9820432,47.2192772 2.35917101,40.1416657 0.405312057,30.3155196 C-1.54854689,20.4893734 3.71077935,10.651386 12.9669196,6.818035 C22.2230599,2.98468398 32.8980739,6.2236012 38.4635955,14.5540082 C44.0291172,22.8844153 42.9350854,33.9861991 35.8505617,41.07 C31.9214098,45.0222513 26.5735533,47.2370202 21.0005617,47.2200974 L21.0005617,47.2200974 Z M21.0005617,7.50997035 C12.0689541,7.50805448 4.37998752,13.8161339 2.63657607,22.575936 C0.893164614,31.3357381 5.58096124,40.1070913 13.8327008,43.5250454 C22.0844404,46.9429995 31.6014796,44.0554332 36.5627735,36.6285106 C41.5240674,29.201588 40.5475746,19.3041875 34.2305617,12.99 C30.7267491,9.47371318 25.9645215,7.5011503 21.0005617,7.50997035 Z" id="Shape" fill="#004C45"></path>
            <rect id="Rectangle" fill="#00BFB2" transform="translate(60.698965, 7.700864) rotate(-45.000000) translate(-60.698965, -7.700864) " x="54.3689649" y="6.56086368" width="12.66" height="2.28"></rect>
            <polygon id="Path" fill="#00BFB2" points="65.8105617 10.26 65.2405617 3.13 57.7805617 2.26 58.0505617 -3.46389584e-13 67.3605617 1.08 68.0905617 10.08"></polygon>
            <path d="M42.1905617,47.2200358 C32.1683012,47.2383838 23.5298071,40.1720397 21.5611562,30.3450128 C19.5925053,20.5179859 24.8424217,10.6693729 34.0983706,6.82574794 C43.3543195,2.98212297 54.0363815,6.21482331 59.6079773,14.5456914 C65.1795732,22.8765595 64.0877267,33.9835244 57.0005617,41.07 C53.0818048,45.013327 47.7499167,47.2274466 42.1905617,47.2200358 Z M42.1905617,7.50997035 C33.2589541,7.50805448 25.5699875,13.8161339 23.8265761,22.575936 C22.0831646,31.3357381 26.7709612,40.1070913 35.0227008,43.5250454 C43.2744404,46.9429995 52.7914796,44.0554332 57.7527735,36.6285106 C62.7140674,29.201588 61.7375746,19.3041875 55.4205617,12.99 C51.9167491,9.47371318 47.1545215,7.5011503 42.1905617,7.50997035 L42.1905617,7.50997035 Z" id="Shape" fill="#004C45"></path>
        </g>
    </g>
</svg>