<?xml version="1.0" encoding="UTF-8"?>
<svg width="48px" height="67px" viewBox="0 0 48 67" version="1.1" xmlns="http://www.w3.org/2000/svg" xmlns:xlink="http://www.w3.org/1999/xlink">
    <title>177BD856-FFB9-4482-8BC7-52D4F861ACA0</title>
    <g id="Design" stroke="none" stroke-width="1" fill="none" fill-rule="evenodd">
        <g id="Clinical-Trials---CT-page" transform="translate(-425.000000, -1578.000000)" fill-rule="nonzero">
            <g id="criteria" transform="translate(378.000000, 1359.287062)">
                <g id="icon_exclusion" transform="translate(47.000000, 218.849365)">
                    <path d="M3,32.1 L3.06,31.85 L3.19,18.72 C3.2281645,17.3454921 4.36514552,16.2575573 5.74,16.28 L5.74,16.28 C6.91409681,16.2848137 7.91828571,17.1251392 8.13,18.28 C8.13,18.28 8.13,18.66 8.13,18.8 L8,33.33 C8.65813036,32.7996499 9.3495449,32.3119856 10.07,31.87 L10.19,9.53 C10.2281645,8.1554921 11.3651455,7.06755732 12.74,7.09 L12.74,7.09 C13.21,7.09 15.57,7.22 15.57,9.55 L15.37,29.61 C16.049292,29.4411533 16.7368816,29.3076407 17.43,29.21 L17.67,4.73 C17.7134764,3.35785517 18.8472722,2.27296814 20.22,2.29 L20.22,2.29 C20.903157,2.29338783 21.5573085,2.56654999 22.04,3.05 C22.4894797,3.50475351 22.7379992,4.12064976 22.73,4.76 L22.49,29.15 C23.1821453,29.2317438 23.8696962,29.3485607 24.55,29.5 L24.72,12.09 C24.9371261,10.657198 26.1915944,9.61323982 27.64,9.66 L27.64,9.66 C28.3240468,9.65896793 28.9798262,9.93280991 29.46,10.42 C29.9108408,10.8697675 30.1598423,11.4832494 30.15,12.12 L29.96,31.65 C30.6557031,32.0627613 31.3237838,32.5203966 31.96,33.02 L32.17,12.14 C32.2083292,10.9801615 31.7879477,9.85195824 31,9 C30.1372216,8.12295712 28.9602648,7.62625975 27.73,7.62 C26.6879231,7.62680784 25.6714464,7.94358653 24.81,8.53 L24.81,4.8 C24.8231363,3.61297663 24.3582425,2.47056321 23.52,1.63 C22.6717172,0.760529971 21.5145455,0.261005548 20.3,0.239890724 L20.3,0.239890724 C17.8012292,0.222912711 15.7499571,2.21189023 15.69,4.71 L15.69,5.81 C14.8227857,5.27182492 13.8205934,4.99093365 12.8,5 L12.8,5 C10.2991327,4.98309865 8.24919523,6.97955945 8.2,9.48 L8.15,14.9 C7.43332558,14.4421245 6.60045372,14.1992036 5.75,14.2 L5.75,14.2 C3.24906584,14.1775125 1.19462615,16.1695614 1.14,18.67 L1,31.6 L1,31.82 C0.655827648,35.1872276 0.834608235,38.587432 1.53,41.9 L1.77,42.54 C2.12914156,41.4341678 2.58768049,40.3631279 3.14,39.34 C2.83350885,36.9386941 2.78657144,34.5113596 3,32.1 L3,32.1 Z" id="Path" fill="#004C45"></path>
                    <path d="M46.76,23.44 C45.8364596,22.5995853 44.6040744,22.1827491 43.36,22.29 C41.179881,22.5734508 39.2124874,23.7415907 37.92,25.52 L32.25,33.14 C32.79,33.5666667 33.31,34.0166667 33.81,34.49 L39.54,26.79 C40.474008,25.4757875 41.8976343,24.5927788 43.49,24.34 C44.1697285,24.2704906 44.8476037,24.4879906 45.36,24.94 C46.72,26.21 45.61,29.4 42.36,33.49 C40.4526906,35.8744223 39.1214724,38.6669005 38.47,41.65 C39.0175102,43.0508509 39.400085,44.5106759 39.61,46 C39.8364806,45.2773805 40.0234242,44.5429589 40.17,43.8 C40.6139901,40.4980304 41.9367389,37.3759289 44,34.76 C48.14,29.51 49.08,25.6 46.76,23.44 Z" id="Path" fill="#004C45"></path>
                    <path d="M20.26,31.0599971 C13.193136,31.0559549 6.81987162,35.3098181 4.11269645,41.8375884 C1.40552129,48.3653588 2.89771099,55.8811569 7.89330849,60.8796156 C12.888906,65.8780742 20.4038484,67.374567 26.9331678,64.6711299 C33.4624872,61.9676928 37.72,55.5968652 37.72,48.53 L37.72,48.53 C37.72,38.8854893 29.9045091,31.0655206 20.26,31.0599971 Z M20.26,63.9400001 C14.535529,63.9393502 9.28316235,60.7655344 6.62038379,55.6980716 C3.95760524,50.6306089 4.32328507,44.5047015 7.57,39.79 L31.67,58.87 C28.7553289,62.0982656 24.6093685,63.9405109 20.26,63.9400001 Z M32.94,57.26 L8.85,38.18 C14.2964967,32.1786485 23.4623069,31.4255193 29.8153683,36.4573338 C36.1684296,41.4891482 37.5344816,50.5838271 32.94,57.26 L32.94,57.26 Z" id="Shape" fill="#00BFB2"></path>
                </g>
            </g>
        </g>
    </g>
</svg>