<?xml version="1.0" encoding="UTF-8"?>
<svg width="54px" height="55px" viewBox="0 0 54 55" version="1.1" xmlns="http://www.w3.org/2000/svg" xmlns:xlink="http://www.w3.org/1999/xlink">
    <title>46682D09-1F07-4414-9D89-9232363B26D6</title>
    <g id="Design" stroke="none" stroke-width="1" fill="none" fill-rule="evenodd">
        <g id="Clinical-Trials---CT-page-rollover" transform="translate(-419.000000, -1461.000000)" fill-rule="nonzero">
            <g id="criteria" transform="translate(378.000000, 1359.287062)">
                <g id="icon_inclusion" transform="translate(41.000000, 102.639518)">
                    <path d="M15.64,21.15 C15.64,21.15 13.86,53.610042 16,53.610042 L41.4,53.610042 C42.6685444,53.6153189 43.8869569,53.1151158 44.7858357,52.2199902 C45.6847145,51.3248645 46.1900112,50.1085555 46.19,48.84 C46.1800114,47.8026789 45.8285641,46.7975395 45.19,45.98 C46.4629247,45.9879892 47.6864577,45.4879127 48.5893805,44.5906214 C49.4923033,43.6933301 50.0000251,42.4729498 50,41.2 C50.0155494,40.022382 49.5912172,38.8813204 48.81,38 C50.2869761,37.4528875 51.3986595,36.2119419 51.7806658,34.6839165 C52.1626722,33.1558911 51.7657495,31.5377939 50.72,30.36 C52.8496898,29.5238604 54.0857389,27.2933331 53.6657182,25.0442687 C53.2456974,22.7952043 51.2879214,21.1611351 49,21.15 L37.6,21.15 C39.6,11.57 38.6,0.15 30.91,0.15 C23.22,0.15 27.22,9.29 24.23,15 C22.5265122,18.3210136 19.330257,20.6205314 15.64,21.18 L15.64,21.15 Z M35.3,23.06 L49.07,23.06 C50.5866391,23.1496415 51.7706631,24.4057141 51.7706631,25.925 C51.7706631,27.4442859 50.5866391,28.7003585 49.07,28.79 L42.37,28.79 L42.37,30.7 L47.16,30.7 C48.6766391,30.7896415 49.8606631,32.0457141 49.8606631,33.565 C49.8606631,35.0842859 48.6766391,36.3403585 47.16,36.43 L40.46,36.43 L40.46,38.34 L45.25,38.34 C46.7666391,38.4296415 47.9506631,39.6857141 47.9506631,41.205 C47.9506631,42.7242859 46.7666391,43.9803585 45.25,44.07 L38.55,44.07 L38.55,46 L41.41,46 C42.9895344,46 44.27,47.2804656 44.27,48.86 C44.27,50.4395344 42.9895344,51.72 41.41,51.72 L15.64,51.72 L15.64,23.06 C17.5732449,22.9524162 19.4343705,22.2892166 21,21.15 C23.0610271,19.9012818 24.7496304,18.1228959 25.89,16 C28.89,10.32 25.43,2.06 30.89,2.06 C36.55,2.06 37.48,11.33 35.67,21.15 L35.28,23.06 L35.3,23.06 Z" id="Shape" fill="#004C45"></path>
                    <path d="M16,21.1699867 L4.5,21.1699867 C3.48431843,21.1673201 2.50960963,21.5702978 1.79235124,22.2894339 C1.07509284,23.0085699 0.674664784,23.9843289 0.679947362,25 L0.679947362,49.81 C0.677335225,50.8239416 1.07894258,51.7971226 1.79591001,52.51409 C2.51287744,53.2310574 3.48605844,53.6326648 4.5,53.6300132 L16,53.6300132 L16,21.1699867 Z M14.05,51.72 L4.48,51.72 C3.42904568,51.7090093 2.58443985,50.8509971 2.5899727,49.8 L2.5899727,25 C2.58443985,23.9490029 3.42904568,23.0909907 4.48,23.08 L14.05,23.08 L14.05,51.72 Z" id="Shape" fill="#00BFB2"></path>
                    <path d="M8.32,47.9 C9.09343062,47.8999894 9.79051023,47.4335434 10.0855464,46.7185969 C10.3805826,46.0036503 10.2153299,45.1813466 9.66699832,44.6358859 C9.11866675,44.0904252 8.29550691,43.9294913 7.58211895,44.2282764 C6.868731,44.5270615 6.40595063,45.22658 6.40997364,46 C6.40997364,47.0548639 7.26513613,47.91 8.32,47.91 L8.32,47.9 Z" id="Path" fill="#00BFB2"></path>
                </g>
            </g>
        </g>
    </g>
</svg>