<svg width="44" height="44" viewBox="0 0 69 62" xmlns="http://www.w3.org/2000/svg"><g fill="none"><path d="M63.3 9.66H52.05v-7.5a.94.94 0 10-1.88 0v7.5H18.3v-7.5a.94.94 0 10-1.88 0v7.5H5.17a.94.94 0 00-.93.94v49.69a.93.93 0 00.93.93H63.3a.94.94 0 00.94-.93V10.6a.94.94 0 00-.94-.94zm-.94 49.69H6.11V11.54h10.31V20a.94.94 0 101.88 0v-8.46h31.87V20a.94.94 0 001.88 0v-8.46h10.31v47.81z" fill="#004C45"/><path d="M46 42.94v8.91c0 .52-.42.94-.94.94h-21.6a.94.94 0 01-.94-.94v-8.91a4.68 4.68 0 014.69-4.68h3.28v-4.69a.94.94 0 01.93-.94h1.88v-1.07a3.37 3.37 0 01-2.43-3.23c0-3.09 2.48-6.84 2.59-7a1 1 0 01.25-.26.94.94 0 011.3.26c.11.16 2.59 3.91 2.59 7a3.37 3.37 0 01-2.43 3.23v1.07h1.88c.52 0 .94.42.94.94v4.69h3.28A4.68 4.68 0 0146 42.94zm-1.88 8v-4.57l-.38.22a4.23 4.23 0 01-4.56 0 2.34 2.34 0 00-2.63 0 4.25 4.25 0 01-4.55 0 2.35 2.35 0 00-2.64 0 4.25 4.25 0 01-4.55 0l-.38-.22v4.54l19.69.03zm0-6.49v-1.51a2.81 2.81 0 00-2.81-2.81h-14.1a2.81 2.81 0 00-2.82 2.81v1.47a4.1 4.1 0 011.34.58 2.34 2.34 0 002.63 0 4.21 4.21 0 014.55 0 2.35 2.35 0 002.64 0 4.23 4.23 0 014.56 0 2.34 2.34 0 002.63 0 4.55 4.55 0 011.34-.57l.04.03zm-8-6.16v-3.78h-3.76v3.75l3.76.03zm-1-8.74a1.48 1.48 0 00.61-1.19 11.35 11.35 0 00-1.49-4.63 11 11 0 00-1.49 4.63c-.002.47.221.912.6 1.19a.94.94 0 011.77 0z" fill="#004C45"/><path d="M44.08 46.37v4.54H24.39v-4.54l.38.22a4.25 4.25 0 004.55 0 2.35 2.35 0 012.64 0 4.25 4.25 0 004.55 0 2.34 2.34 0 012.63 0c1.39.89 3.17.89 4.56 0l.38-.22z" fill="#00BFB2"/></g></svg>