<svg width="45" height="40" viewBox="0 0 69 62" xmlns="http://www.w3.org/2000/svg"><g fill="none"><path d="M20.05 46.34v6.81h-6v2.29h6v5.93h2.28v-5.93h6v-2.29h-6v-6.81c11.05-.59-13.33-.59-2.28 0z" fill="#00BFB2"/><path d="M21 47.22a21 21 0 1114.85-6.15A20.85 20.85 0 0121 47.22zm0-39.71a18.72 18.72 0 1013.23 5.48A18.63 18.63 0 0021 7.51z" fill="#004C45"/><path fill="#00BFB2" d="M55.417 11.37l8.952-8.951 1.612 1.612-8.952 8.952z"/><path fill="#00BFB2" d="M65.81 10.26l-.57-7.13-7.46-.87.27-2.26 9.31 1.08.73 9z"/><path d="M42.19 47.22A21 21 0 1157 41.07a20.84 20.84 0 01-14.81 6.15zm0-39.71a18.72 18.72 0 1013.23 5.48 18.63 18.63 0 00-13.23-5.48z" fill="#004C45"/></g></svg>