<svg width="48" height="67" xmlns="http://www.w3.org/2000/svg"><g fill="none"><path d="M3 32.236l.06-.25.13-13.13a2.51 2.51 0 012.55-2.44 2.44 2.44 0 012.39 2v.52L8 33.466a19.8 19.8 0 012.07-1.46l.12-22.34a2.51 2.51 0 012.55-2.44c.47 0 2.83.13 2.83 2.46l-.2 20.06a20.25 20.25 0 012.06-.4l.24-24.48a2.52 2.52 0 012.55-2.44 2.59 2.59 0 011.82.76c.45.455.698 1.071.69 1.71l-.24 24.39a20.6 20.6 0 012.06.35l.17-17.41a2.86 2.86 0 012.92-2.43 2.55 2.55 0 011.82.76c.45.45.7 1.064.69 1.7l-.19 19.53c.696.413 1.364.87 2 1.37l.21-20.88A4.41 4.41 0 0031 9.136a4.62 4.62 0 00-3.27-1.38 5.25 5.25 0 00-2.92.91v-3.73a4.42 4.42 0 00-1.29-3.17A4.61 4.61 0 0020.3.376a4.58 4.58 0 00-4.61 4.47v1.1a5.39 5.39 0 00-2.89-.81 4.57 4.57 0 00-4.6 4.48l-.05 5.42a4.45 4.45 0 00-2.4-.7 4.57 4.57 0 00-4.61 4.47L1 31.736v.22a32.82 32.82 0 00.53 10.08l.24.64a19.26 19.26 0 011.37-3.2 33.71 33.71 0 01-.14-7.24zm43.76-8.66a4.48 4.48 0 00-3.4-1.15 8 8 0 00-5.44 3.23l-5.67 7.62c.54.427 1.06.877 1.56 1.35l5.73-7.7a6 6 0 013.95-2.45 2.45 2.45 0 011.87.6c1.36 1.27.25 4.46-3 8.55a19.84 19.84 0 00-3.89 8.16c.548 1.401.93 2.861 1.14 4.35a20.85 20.85 0 00.56-2.2 18.6 18.6 0 013.83-9.04c4.14-5.25 5.08-9.16 2.76-11.32z" fill="#004C45"/><path d="M20.26 31.196a17.47 17.47 0 1017.46 17.47c0-9.644-7.815-17.464-17.46-17.47zm0 32.88a15.41 15.41 0 01-12.69-24.15l24.1 19.08a15.37 15.37 0 01-11.41 5.07zm12.68-6.68L8.85 38.316c5.446-6 14.612-6.754 20.965-1.722s7.72 14.126 3.125 20.802z" fill="#00BFB2"/></g></svg>