<svg width="231" height="70" xmlns="http://www.w3.org/2000/svg"><g fill="none"><path fill="#ED8B22" d="M91.358.482l-7.335 4.706 1.851 2.924 7.638-3.974z"/><path d="M13.704 16.388h13.16v5.273l-1.718.241v8.618a27.121 27.121 0 01-10.034 1.859C5.18 32.379.148 27.222.148 17.889.148 9.994 6.02 2.97 15.563 2.97c4.667 0 7.32.467 9.551 1.237v8.82h-6.54l-.358-2.738a5.577 5.577 0 00-2.248-.272c-3.757 0-7.257 2.27-7.257 7.482 0 4.309 1.509 7.778 7.218 7.778a7 7 0 001.353-.062v-3.158l-3.578-.498v-5.172zm29.914 2.061c0-2.52-1.37-3.306-2.715-3.306a7.054 7.054 0 00-3.189.576l-.272 2.224H33.32v-6.37c2.077-.949 4.309-1.462 8.089-1.462 5.693 0 8.765 1.921 8.765 8.097 0 3.5-.116 5.786-.194 8.796l3.446.343v4.417l-3.936.304h-5.227V30.59a3.889 3.889 0 01.171-1.75s-1.967 3.539-5.444 3.539c-4.768 0-7.101-2.823-7.101-6.176a6.16 6.16 0 014.27-5.856 16.683 16.683 0 017.451-1.37l.008-.528zm-1.011 4.418c-3.82 0-5.017.777-5.017 2.333 0 1.034.731 2.108 2.574 2.108 1.844 0 3.742-1.206 3.742-4.418l-1.3-.023zM62.759 5.351l-3.695-.583V1.486l4.03-.49h5.117v26.918l3.453.483v3.5h-12.6V28.38l3.695-.451zm42.07 5.872l3.935-.474h4.014c0 1.501-.327 4.309-.327 4.309a7.109 7.109 0 017-4.8c4.488 0 7.778 3.742 7.778 10.05 0 7-3.827 12.07-10.259 12.07-1.428.03-2.85-.204-4.192-.691L112.7 42.24h-4.394l.163-27.829-3.663-.326.023-2.863zm8.135 16.684a6.666 6.666 0 003.703.87c3.78 0 5.91-3.655 5.91-7.777 0-3.943-1.345-6.712-4.425-6.712s-5.149 2.808-5.149 7.73l-.039 5.889zm23.676-12.74l-.646-3.111a17.523 17.523 0 016.915-1.556c5.444 0 8.47 1.898 8.47 7.474 0 1.82-.078 7.218-.078 11.006l3.625.334v2.256l-3.602.296h-3.468v-.856c0-1.221.07-3.111.07-3.111a7.312 7.312 0 01-6.783 4.464c-2.395 0-6.61-.886-6.393-6.004.187-4.527 5.639-6.697 12.67-6.697v-1.229c0-3.95-1.61-4.97-4.9-4.97a12.11 12.11 0 00-4.667 1.058c-.87.428-1.213.646-1.213.646m10.78 7.249c-4.449 0-8.929.855-8.929 3.663 0 2.178 1.423 3.235 3.36 3.235 1.937 0 5.569-1.057 5.569-6.898m35.078-8.945h-1.867c-.568 0-2.24-.163-2.808-.202a6.541 6.541 0 011.991 5.04c0 4.667-3.943 7.482-8.866 7.482-.856 0-3.78.49-3.78 1.999 0 1.058.98 1.338 3.616 1.742l5.616.941c3.251.521 5.654 1.704 5.654 5.08 0 4.845-5.047 7.038-10.29 7.038-5.04 0-10.002-1.625-10.002-5.732 0-3.173 2.56-4.558 5.29-5.172v-.078c-1.673-.366-3.213-1.299-3.213-3.251 0-2.155 2.108-2.73 3.819-3.174V25.1c-1.424-.319-5.29-1.742-5.29-7.07 0-4.356 3.579-7.607 8.704-7.607a16.23 16.23 0 013.617.49h7.778l.03 2.56zM169.556 32.38c-.413 0-4.597 1.182-4.597 3.951 0 3.251 4.915 3.694 7 3.694 2.605 0 6.79-.777 6.79-4.145 0-1.875-1.711-2.403-3.578-2.683l-5.615-.817zm-3.99-14.311a5.281 5.281 0 005.444 5.164c3.586 0 5.857-2.333 5.857-5.289 0-2.03-1.556-4.962-5.57-4.962-3.297 0-5.693 1.991-5.693 5.087m33.336-7.367c6.222 0 9.901 4.278 9.901 10.111 0 6.503-3.679 11.255-9.901 11.255-6.222 0-9.94-4.247-9.94-10.111 0-6.503 3.687-11.255 9.909-11.255m.039 19.445c4.666 0 7-3.827 7-8.556 0-4.729-2.334-8.555-7-8.555-4.667 0-7 3.826-7 8.555 0 4.729 2.333 8.556 7 8.556M217 28.98a11.068 11.068 0 005.444 1.556c3.835 0 5.523-1.914 5.523-4.045 0-2.427-1.735-3.609-5.157-4.667-3.967-1.22-5.927-3.173-5.927-5.646 0-2.956 2.466-5.78 7.21-5.78 1.514.022 3.01.328 4.41.903v2.225a8.61 8.61 0 00-4.83-1.346c-3.01 0-4.612 1.734-4.612 3.733 0 2.334 1.867 3.26 5.11 4.301 4.021 1.3 5.981 2.956 5.981 6.083 0 3.39-2.924 5.996-7.894 5.996a12.89 12.89 0 01-5.32-1.127v-2.217M90.284 18.348c0-3.212-1.345-3.594-4.028-3.594-1.202.05-2.391.257-3.54.615l-2.66.824-.49-4.254c.514-.373 3.796-1.501 7.576-1.501 5.694 0 8.65 1.688 8.65 7.87 0 3.5-.118 6.425-.203 9.435l3.803.39v3.46l-3.725.296h-4.823V30.59a9.116 9.116 0 01.203-2.139c-1.16 2.816-4.294 3.889-6.223 3.889-4.798 0-6.68-2.839-6.68-6.176 0-3.056 2.955-5.242 4.596-5.802 2.394-1 4.976-1.466 7.568-1.369l-.024-.645zm-1.306 4.34c-3.982 0-5.6 1.555-5.6 2.932a2.434 2.434 0 002.69 2.504c1.96 0 4.279-1.617 4.279-5.444l-1.37.008z" fill="#034D47"/><path d="M52.352 49.202a7.078 7.078 0 00-5.639 2.38c-1.379 1.556-2.066 3.726-2.06 6.51.004 2.785.668 4.973 1.99 6.565a7.07 7.07 0 005.678 2.333 19.39 19.39 0 005.172-.817v2.21a15.976 15.976 0 01-5.553.847c-3.194 0-5.657-.97-7.389-2.909-1.732-1.94-2.598-4.687-2.598-8.244a13.028 13.028 0 011.253-5.865 8.913 8.913 0 013.616-3.889 10.889 10.889 0 015.561-1.369c2.054-.036 4.09.397 5.95 1.268l-1.065 2.162a11.464 11.464 0 00-4.916-1.182zm11.651 19.717h-2.457v-23.03h2.457zm4.698-20.635a1.62 1.62 0 01.42-1.236 1.517 1.517 0 012.053 0c.314.329.473.776.436 1.229a1.62 1.62 0 01-.436 1.236 1.423 1.423 0 01-1.018.405 1.408 1.408 0 01-1.035-.405 1.649 1.649 0 01-.42-1.229zM71.37 68.92h-2.46V52.68h2.458v16.24zm16.021-.001V58.41a4.262 4.262 0 00-.902-2.963 3.718 3.718 0 00-2.831-.972c-1.701 0-2.945.458-3.734 1.376-.777.918-1.182 2.435-1.182 4.55v8.556h-2.465v-16.28h1.999l.404 2.225h.117a5.056 5.056 0 012.092-1.859 6.891 6.891 0 013.033-.66 6.168 6.168 0 014.41 1.415c.985.938 1.48 2.447 1.486 4.527v10.593H87.39zm6.992-20.635a1.62 1.62 0 01.42-1.236 1.556 1.556 0 012.061 0c.308.332.463.777.428 1.229.033.453-.121.9-.428 1.236a1.439 1.439 0 01-1.026.405 1.408 1.408 0 01-1.035-.405 1.649 1.649 0 01-.42-1.229zm2.668 20.635h-2.458v-16.24h2.458v16.24zm11.402.303a6.93 6.93 0 01-5.444-2.17c-1.291-1.446-1.937-3.495-1.937-6.144 0-2.715.661-4.815 1.968-6.292a7.078 7.078 0 015.592-2.225c.785 0 1.567.087 2.334.257a7.552 7.552 0 011.843.59l-.778 2.085a11.037 11.037 0 00-1.773-.536 7.731 7.731 0 00-1.704-.218c-3.297 0-4.946 2.105-4.946 6.315a7.537 7.537 0 001.205 4.59 4.208 4.208 0 003.578 1.555c1.43-.014 2.845-.31 4.161-.871v2.178a8.898 8.898 0 01-4.099.886zm17.633-.303l-.49-2.333h-.117a6.767 6.767 0 01-2.427 2.068c-.954.39-1.98.575-3.01.545a5.444 5.444 0 01-3.788-1.245 4.558 4.558 0 01-1.368-3.538c0-3.283 2.62-5.002 7.863-5.157l2.753-.093v-.988a4.138 4.138 0 00-.816-2.824 3.391 3.391 0 00-2.63-.91c-1.606.065-3.177.49-4.596 1.245l-.778-1.882a11.667 11.667 0 012.63-1.02 11.356 11.356 0 012.87-.373c1.938 0 3.372.43 4.3 1.292.928.86 1.395 2.237 1.4 4.13v11.083h-1.796zm-5.53-1.735a4.978 4.978 0 003.6-1.26 4.667 4.667 0 001.315-3.523v-1.47l-2.458.101a8.859 8.859 0 00-4.23.918 2.738 2.738 0 00-1.3 2.504c-.06.76.226 1.506.778 2.03.652.51 1.47.76 2.295.7zm14.567 1.735h-2.457v-23.03h2.457zm21.778 0h-5.857v-16.87h-5.28v-4.791h16.41v4.79h-5.273zm17.85-17.08c.482-.002.964.037 1.439.117l.327.062-.521 5.444a8.664 8.664 0 00-1.968-.17 3.772 3.772 0 00-2.754.862 3.383 3.383 0 00-.863 2.513v8.252h-5.787V52.11h4.31l.902 2.683h.28a5.787 5.787 0 012.022-2.154 4.807 4.807 0 012.613-.801zm3.687-3.881a2.466 2.466 0 01.723-1.945 3.531 3.531 0 012.333-.63 3.57 3.57 0 012.334.646 2.45 2.45 0 01.739 1.929c0 1.695-1.035 2.55-3.111 2.55-2.077 0-3.018-.855-3.018-2.55zm5.934 21h-5.786V52.11h5.786v16.847zm14.685-.039l-1.105-2.225h-.124a6.627 6.627 0 01-2.38 1.984 7.84 7.84 0 01-3.111.536 4.931 4.931 0 01-3.734-1.423 5.538 5.538 0 01-1.392-4.013 4.566 4.566 0 011.867-3.998 10.243 10.243 0 015.405-1.47l2.8-.093v-.234a1.82 1.82 0 00-2.06-2.06 12.359 12.359 0 00-4.667 1.244l-1.673-3.82a16.147 16.147 0 017.405-1.508 7.202 7.202 0 015 1.555 5.732 5.732 0 011.774 4.48V68.88l-4.005.039zm-4.294-3.796a2.644 2.644 0 001.805-.669 2.201 2.201 0 00.778-1.726v-1.284l-1.338.063c-1.906.062-2.855.777-2.855 2.1-.03 1.003.514 1.516 1.61 1.516zm17.741 3.796h-5.794v-23.03h5.794zm16.668-5.141c.1 1.576-.587 3.1-1.835 4.068-1.23.923-2.987 1.384-5.274 1.384a23.014 23.014 0 01-3.243-.202 14.062 14.062 0 01-2.816-.731V63.63c.955.41 1.944.735 2.956.972.936.24 1.896.371 2.862.39 1.26 0 1.882-.289 1.882-.864a.972.972 0 00-.52-.778 25.744 25.744 0 00-3.065-1.353 7.576 7.576 0 01-3.228-2.155 4.923 4.923 0 01-.918-3.056 4.247 4.247 0 011.813-3.648 8.641 8.641 0 015.11-1.3 12.88 12.88 0 013.11.359c1.04.27 2.054.626 3.034 1.065l-1.556 3.734a17.111 17.111 0 00-2.442-.887 8.174 8.174 0 00-2.108-.358c-.948 0-1.415.226-1.415.692a.863.863 0 00.49.731c.932.467 1.89.88 2.87 1.237.934.359 1.818.837 2.629 1.423.553.435.99.998 1.275 1.642.284.733.416 1.516.39 2.302z" fill="#01BAB4"/></g></svg>